<svg width="29" height="30" viewBox="0 0 29 30" fill="none" xmlns="http://www.w3.org/2000/svg">
<g clip-path="url(#clip0_375_110)">
<path d="M28.9964 14.6966C28.9952 14.6584 28.9946 14.6207 28.9934 14.583C28.9916 14.521 28.9891 14.4584 28.9867 14.3963C28.9818 14.2924 28.977 14.1884 28.9697 14.0851C28.9685 14.0626 28.9672 14.0413 28.966 14.0188C28.9612 13.9459 28.9551 13.8723 28.949 13.7994L28.9453 13.7574C28.6544 10.4697 27.2209 7.38779 24.8939 5.0471C22.5669 2.70642 19.4934 1.2549 16.2074 0.944719C16.1946 0.943502 16.1819 0.942893 16.1691 0.941681C16.05 0.93074 15.9296 0.921619 15.8092 0.914326C15.7752 0.911287 15.7418 0.909461 15.7083 0.90764C15.605 0.902166 15.5004 0.896699 15.3971 0.893051C15.3606 0.891835 15.3247 0.890618 15.2889 0.889404C15.1539 0.885756 15.019 0.882713 14.8834 0.882713C14.777 0.882713 14.6706 0.884539 14.5649 0.886968C14.5114 0.888185 14.4573 0.890616 14.4032 0.891832C14.357 0.893645 14.3114 0.894871 14.2664 0.896697C14.1855 0.900952 14.1047 0.905204 14.0244 0.909461C14.0159 0.910071 14.0086 0.910678 14.0001 0.910678C10.6316 1.12212 7.45018 2.5333 5.03253 4.8885C2.61488 7.24369 1.12094 10.3871 0.821431 13.7489C0.783744 14.158 0.766113 14.5501 0.766113 15C0.766113 15.11 0.76733 15.22 0.770368 15.3295L0.774016 15.4474C0.775842 15.5167 0.778274 15.586 0.781311 15.6553C0.784349 15.7045 0.786785 15.7532 0.789214 15.8024C0.792252 15.8602 0.796509 15.9179 0.800154 15.9763C0.803802 16.0316 0.80745 16.0875 0.812314 16.1428C0.815962 16.1915 0.820216 16.2407 0.825081 16.2893C0.83055 16.3513 0.836021 16.4134 0.84271 16.4753C0.846964 16.5191 0.852438 16.5629 0.856691 16.6073C0.860946 16.6529 0.865203 16.6978 0.871284 16.7428L0.882224 16.817C1.00533 17.7859 1.22966 18.7392 1.55152 19.6614C1.55225 19.6649 1.55327 19.6683 1.55456 19.6717C1.58131 19.7483 1.60927 19.8255 1.63784 19.9027C1.64757 19.9282 1.6573 19.9538 1.66641 19.9793C1.69013 20.0431 1.71445 20.1064 1.73937 20.169C1.757 20.2152 1.77523 20.2602 1.79408 20.3051C1.81232 20.3513 1.83056 20.3975 1.85 20.4425C3.1452 23.557 5.51641 26.1023 8.53144 27.6145C8.5403 27.6197 8.54943 27.6243 8.55879 27.6285C8.62991 27.6644 8.70226 27.6996 8.7746 27.7337C8.82201 27.7568 8.87004 27.7799 8.91745 27.8018C8.94056 27.8127 8.96365 27.823 8.98615 27.834C10.8361 28.6829 12.848 29.1207 14.8834 29.1173H14.8913C15.0086 29.1173 15.1266 29.1154 15.2433 29.1124C15.2621 29.1118 15.2797 29.1106 15.2974 29.1106C15.4013 29.1076 15.5047 29.1039 15.6068 29.0984C15.6117 29.0984 15.6165 29.0978 15.6214 29.0978C19.1056 28.9153 22.3988 27.449 24.8657 24.9817C27.3327 22.5144 28.7986 19.221 28.9806 15.7368C28.9812 15.7325 28.9812 15.7283 28.9818 15.724C28.9873 15.6207 28.9909 15.5167 28.9934 15.4121L28.9952 15.3605C28.9988 15.2413 29.0001 15.121 29.0001 15.0006V15C29.0001 14.8991 28.9988 14.7976 28.9964 14.6966ZM14.8834 27.254C14.8317 27.254 14.7807 27.2522 14.7296 27.2516C14.6682 27.251 14.532 27.1191 14.4797 27.0832C14.3825 27.0164 14.286 26.9487 14.1904 26.8802C14.0098 26.7501 13.8323 26.6151 13.6597 26.4747C13.2337 26.1446 12.8602 25.752 12.5517 25.3101C11.8978 24.3194 12.0182 23.1723 12.6154 22.186C13.0419 21.4818 13.7071 20.9271 14.2114 20.2753C14.7863 19.5683 15.222 18.7588 15.4955 17.8895C15.6167 17.5021 15.6445 17.0915 15.5764 16.6913C15.5084 16.2911 15.3466 15.9127 15.1042 15.5871C14.5164 14.8638 13.4363 14.476 12.5655 14.2486C12.456 14.22 12.3448 14.1969 12.2329 14.1781C11.9856 14.1397 11.7364 14.1143 11.4864 14.1021C10.5842 14.0508 9.67931 14.0701 8.78007 14.1599C7.99102 14.2365 7.16184 14.4814 6.41473 14.0997C5.77035 13.7714 5.19042 13.3289 4.48039 13.1441C3.92907 13.0185 3.36497 12.9577 2.79954 12.9629C3.07563 11.3275 3.68076 9.76515 4.57829 8.37044C5.47582 6.97573 6.64708 5.77769 8.02114 4.84886C9.3952 3.92003 10.9435 3.27974 12.5722 2.96676C14.201 2.65377 15.8763 2.6746 17.4968 3.028C17.5521 3.96234 18.4007 4.53194 17.9636 5.52464C17.374 6.86324 15.7126 7.26081 15.0329 8.52828C14.8762 8.79993 14.7998 9.1105 14.8126 9.42387C14.8254 9.73723 14.9269 10.0405 15.1053 10.2985C15.3514 10.6845 15.5763 11.0837 15.7788 11.4942C16.0749 12.0669 16.394 12.8152 16.98 13.1526C18.6943 14.141 18.8329 11.0632 20.0116 10.8687C20.6475 10.7635 21.0068 11.1234 21.3065 11.631C21.6639 12.2352 21.9502 12.7641 22.7053 12.9118C23.1812 12.9799 23.6645 12.9799 24.1405 12.9118C24.3752 12.8894 26.8791 12.4936 26.8493 12.3593C27.2441 14.1496 27.2322 16.0058 26.8145 17.7909C26.3967 19.5761 25.5838 21.2447 24.4356 22.674C23.2873 24.1033 21.8331 25.2568 20.1799 26.0494C18.5267 26.8421 16.7168 27.2537 14.8834 27.254Z" fill="white"/>
<path d="M15.8079 22.5752C15.0237 22.0147 13.9939 22.8297 13.6299 23.708C13.3132 24.4738 13.7033 25.1775 14.4869 25.4036C14.9245 25.5289 15.3921 25.4981 15.8096 25.3166C16.7726 24.8627 16.6749 23.7453 16.1677 22.9646C16.0731 22.8134 15.9511 22.6813 15.8079 22.5752Z" fill="white"/>
<path d="M22.5104 14.997C22.2794 14.9979 22.0489 15.0171 21.8209 15.0545C20.9988 15.1637 20.1986 15.3997 19.4488 15.754C19.0718 15.9458 18.7203 16.1849 18.3373 16.366C17.9515 16.5483 17.4697 16.5424 17.1152 16.772C16.8867 16.9131 16.7212 17.1367 16.653 17.3964C16.5382 17.8847 16.8589 18.2724 17.2626 18.4961C17.8503 18.8216 18.4445 19.1365 19.0227 19.4774C19.511 19.7656 20.0578 20.1977 20.6615 20.1042C21.0876 20.0379 21.4575 19.6549 21.7742 19.3868C22.1817 19.0323 22.569 18.655 22.9342 18.257C23.3781 17.787 24.0475 17.2923 24.2759 16.6714C24.3361 16.4671 24.3373 16.2499 24.2791 16.045C24.221 15.8402 24.106 15.6559 23.9474 15.5137C23.7546 15.3359 23.5281 15.1985 23.2813 15.1098C23.0345 15.021 22.7723 14.9827 22.5104 14.997Z" fill="white"/>
</g>
<defs>
<clipPath id="clip0_375_110">
<rect width="28.2339" height="28.2346" fill="white" transform="translate(0.766113 0.882713)"/>
</clipPath>
</defs>
</svg>
