<svg width="46" height="37" viewBox="0 0 46 37" fill="none" xmlns="http://www.w3.org/2000/svg">
<path d="M45.8081 17.6C41.1637 7.0475 32.4267 0.5 23 0.5C13.5733 0.5 4.83633 7.0475 0.191948 17.6C0.0653466 17.8839 0 18.1903 0 18.5C0 18.8097 0.0653466 19.1161 0.191948 19.4C4.83633 29.9525 13.5733 36.5 23 36.5C32.4267 36.5 41.1637 29.9525 45.8081 19.4C45.9347 19.1161 46 18.8097 46 18.5C46 18.1903 45.9347 17.8839 45.8081 17.6ZM23 32C15.7115 32 8.81394 26.8475 4.83633 18.5C8.81394 10.1525 15.7115 5 23 5C30.2885 5 37.1861 10.1525 41.1637 18.5C37.1861 26.8475 30.2885 32 23 32ZM23 9.5C21.181 9.5 19.4029 10.0278 17.8905 11.0168C16.3781 12.0057 15.1994 13.4113 14.5033 15.0558C13.8072 16.7004 13.6251 18.51 13.9799 20.2558C14.3348 22.0016 15.2107 23.6053 16.4969 24.864C17.7831 26.1226 19.4218 26.9798 21.2058 27.3271C22.9898 27.6743 24.839 27.4961 26.5195 26.8149C28.2 26.1337 29.6363 24.9802 30.6469 23.5001C31.6574 22.0201 32.1968 20.28 32.1968 18.5C32.1968 16.1131 31.2279 13.8239 29.5031 12.136C27.7784 10.4482 25.4391 9.5 23 9.5ZM23 23C22.0905 23 21.2015 22.7361 20.4453 22.2416C19.6891 21.7471 19.0997 21.0443 18.7516 20.2221C18.4036 19.3998 18.3125 18.495 18.49 17.6221C18.6674 16.7492 19.1053 15.9474 19.7484 15.318C20.3915 14.6887 21.2109 14.2601 22.1029 14.0865C22.9949 13.9128 23.9195 14.0019 24.7597 14.3425C25.6 14.6831 26.3181 15.2599 26.8234 15.9999C27.3287 16.74 27.5984 17.61 27.5984 18.5C27.5984 19.6935 27.1139 20.8381 26.2516 21.682C25.3892 22.5259 24.2196 23 23 23Z" fill="black"/>
</svg>
