<svg width="48" height="51" viewBox="0 0 48 51" fill="none" xmlns="http://www.w3.org/2000/svg">
<mask id="path-1-outside-1_375_454" maskUnits="userSpaceOnUse" x="0" y="0" width="48" height="51" fill="black">
<rect fill="white" width="48" height="51"/>
<path fill-rule="evenodd" clip-rule="evenodd" d="M46.5481 5.98864C46.5639 5.9052 46.572 5.82118 46.572 5.73664C46.572 5.69909 46.5704 5.66163 46.5672 5.62427C46.5704 5.52674 46.572 5.42884 46.572 5.33057H46.5098C45.7635 2.90468 38.3921 1 29.4086 1C20.4252 1 13.0538 2.90468 12.3074 5.33057H12.2453C12.2453 5.42884 12.2468 5.52674 12.2499 5.62427C12.2468 5.66163 12.2453 5.69909 12.2453 5.73664C12.2453 5.82118 12.2532 5.9052 12.2691 5.98864C12.7542 12.6465 20.5614 17.5106 29.4086 17.5106C29.5277 17.5106 29.6466 17.5096 29.7653 17.5079C29.6133 17.5237 29.4606 17.5417 29.3069 17.5621C25.7956 18.0278 22.0448 19.6832 18.1635 23.0496L1 37.9362L3.20705 39.8496L20.3701 24.9635C23.9003 21.9016 27.0732 20.5966 29.7787 20.2377C32.4826 19.879 34.8983 20.4416 36.965 21.3952C39.0463 22.3553 40.7372 23.6973 41.9204 24.8231C42.3405 25.2229 42.6912 25.5902 42.9674 25.8958L42.7756 26.0621C40.8624 25.2642 38.7037 25.2632 36.6734 25.7335C34.0264 26.3466 31.43 27.7827 29.3779 29.5625C27.3306 31.3382 25.6931 33.5714 25.1384 35.8785C24.7418 37.528 24.9065 39.2202 25.8589 40.7349L17.3832 48.0861L19.5898 50L47 26.2259L46.3281 25.3101L45.0117 26.0365C46.3281 25.3101 46.3272 25.3087 46.3272 25.3087L46.3259 25.3071L46.3228 25.3028L46.3133 25.2902L46.2824 25.2492C46.2565 25.2151 46.2198 25.1676 46.1727 25.1079C46.0785 24.9885 45.9421 24.8204 45.7653 24.6143C45.4121 24.2024 44.8948 23.6356 44.2267 22.9998C42.8987 21.7362 40.9326 20.1598 38.4306 19.0056C36.445 18.0895 34.0999 17.4303 31.4731 17.4218C39.4381 16.7346 46.1011 12.123 46.5481 5.98864ZM43.6137 5.21106C43.6137 5.21106 43.6091 5.21801 43.5951 5.23157C43.6059 5.2178 43.6137 5.21106 43.6137 5.21106ZM42.7652 5.73664C42.255 5.49389 41.541 5.22661 40.5987 4.96657C37.8747 4.2148 33.9179 3.70665 29.4086 3.70665C24.8994 3.70665 20.9426 4.2148 18.2184 4.96657C17.2762 5.22661 16.5623 5.49389 16.0519 5.73664C16.5623 5.97939 17.2762 6.24667 18.2184 6.50668C20.9426 7.25846 24.8994 7.76663 29.4086 7.76663C33.9179 7.76663 37.8747 7.25846 40.5987 6.50668C41.541 6.24667 42.255 5.9794 42.7652 5.73664ZM15.2035 5.21106C15.2035 5.21106 15.2114 5.2178 15.2222 5.23158C15.208 5.21799 15.2035 5.21106 15.2035 5.21106ZM42.4498 8.81613C39.3021 9.83045 34.6272 10.4733 29.4086 10.4733C24.1899 10.4733 19.5152 9.83045 16.3673 8.81613C18.3866 12.2233 23.281 14.8039 29.4086 14.8039C35.5363 14.8039 40.4306 12.2233 42.4498 8.81613ZM28.2365 38.6725L40.3181 28.1937C39.4651 28.0556 38.5115 28.1093 37.4784 28.3485C35.469 28.814 33.3356 29.9575 31.5845 31.4764C29.8285 32.9995 28.5893 34.7839 28.1932 36.431C28.0031 37.2214 28.0041 37.9738 28.2365 38.6725Z"/>
</mask>
<path fill-rule="evenodd" clip-rule="evenodd" d="M46.5481 5.98864C46.5639 5.9052 46.572 5.82118 46.572 5.73664C46.572 5.69909 46.5704 5.66163 46.5672 5.62427C46.5704 5.52674 46.572 5.42884 46.572 5.33057H46.5098C45.7635 2.90468 38.3921 1 29.4086 1C20.4252 1 13.0538 2.90468 12.3074 5.33057H12.2453C12.2453 5.42884 12.2468 5.52674 12.2499 5.62427C12.2468 5.66163 12.2453 5.69909 12.2453 5.73664C12.2453 5.82118 12.2532 5.9052 12.2691 5.98864C12.7542 12.6465 20.5614 17.5106 29.4086 17.5106C29.5277 17.5106 29.6466 17.5096 29.7653 17.5079C29.6133 17.5237 29.4606 17.5417 29.3069 17.5621C25.7956 18.0278 22.0448 19.6832 18.1635 23.0496L1 37.9362L3.20705 39.8496L20.3701 24.9635C23.9003 21.9016 27.0732 20.5966 29.7787 20.2377C32.4826 19.879 34.8983 20.4416 36.965 21.3952C39.0463 22.3553 40.7372 23.6973 41.9204 24.8231C42.3405 25.2229 42.6912 25.5902 42.9674 25.8958L42.7756 26.0621C40.8624 25.2642 38.7037 25.2632 36.6734 25.7335C34.0264 26.3466 31.43 27.7827 29.3779 29.5625C27.3306 31.3382 25.6931 33.5714 25.1384 35.8785C24.7418 37.528 24.9065 39.2202 25.8589 40.7349L17.3832 48.0861L19.5898 50L47 26.2259L46.3281 25.3101L45.0117 26.0365C46.3281 25.3101 46.3272 25.3087 46.3272 25.3087L46.3259 25.3071L46.3228 25.3028L46.3133 25.2902L46.2824 25.2492C46.2565 25.2151 46.2198 25.1676 46.1727 25.1079C46.0785 24.9885 45.9421 24.8204 45.7653 24.6143C45.4121 24.2024 44.8948 23.6356 44.2267 22.9998C42.8987 21.7362 40.9326 20.1598 38.4306 19.0056C36.445 18.0895 34.0999 17.4303 31.4731 17.4218C39.4381 16.7346 46.1011 12.123 46.5481 5.98864ZM43.6137 5.21106C43.6137 5.21106 43.6091 5.21801 43.5951 5.23157C43.6059 5.2178 43.6137 5.21106 43.6137 5.21106ZM42.7652 5.73664C42.255 5.49389 41.541 5.22661 40.5987 4.96657C37.8747 4.2148 33.9179 3.70665 29.4086 3.70665C24.8994 3.70665 20.9426 4.2148 18.2184 4.96657C17.2762 5.22661 16.5623 5.49389 16.0519 5.73664C16.5623 5.97939 17.2762 6.24667 18.2184 6.50668C20.9426 7.25846 24.8994 7.76663 29.4086 7.76663C33.9179 7.76663 37.8747 7.25846 40.5987 6.50668C41.541 6.24667 42.255 5.9794 42.7652 5.73664ZM15.2035 5.21106C15.2035 5.21106 15.2114 5.2178 15.2222 5.23158C15.208 5.21799 15.2035 5.21106 15.2035 5.21106ZM42.4498 8.81613C39.3021 9.83045 34.6272 10.4733 29.4086 10.4733C24.1899 10.4733 19.5152 9.83045 16.3673 8.81613C18.3866 12.2233 23.281 14.8039 29.4086 14.8039C35.5363 14.8039 40.4306 12.2233 42.4498 8.81613ZM28.2365 38.6725L40.3181 28.1937C39.4651 28.0556 38.5115 28.1093 37.4784 28.3485C35.469 28.814 33.3356 29.9575 31.5845 31.4764C29.8285 32.9995 28.5893 34.7839 28.1932 36.431C28.0031 37.2214 28.0041 37.9738 28.2365 38.6725Z" fill="#333333"/>
<path d="M46.5481 5.98864L46.0568 5.89586L46.0515 5.92387L46.0495 5.9523L46.5481 5.98864ZM46.5672 5.62427L46.0675 5.60749L46.0664 5.63778L46.0691 5.66797L46.5672 5.62427ZM46.572 5.33057H47.072V4.83057H46.572V5.33057ZM46.5098 5.33057L46.0319 5.47759L46.1404 5.83057H46.5098V5.33057ZM12.3074 5.33057V5.83057H12.6767L12.7853 5.47762L12.3074 5.33057ZM12.2453 5.33057V4.83057H11.7453V5.33057H12.2453ZM12.2499 5.62427L12.7482 5.6659L12.7506 5.63714L12.7497 5.60828L12.2499 5.62427ZM12.2691 5.98864L12.7678 5.95231L12.7657 5.92342L12.7603 5.89497L12.2691 5.98864ZM29.7653 17.5079L29.8171 18.0052L29.7579 17.0079L29.7653 17.5079ZM29.3069 17.5621L29.3726 18.0578L29.3728 18.0578L29.3069 17.5621ZM18.1635 23.0496L18.4911 23.4273L18.4911 23.4273L18.1635 23.0496ZM1 37.9362L0.67239 37.5585L0.236807 37.9363L0.672468 38.314L1 37.9362ZM3.20705 39.8496L2.87952 40.2274L3.20712 40.5115L3.53466 40.2274L3.20705 39.8496ZM20.3701 24.9635L20.6977 25.3412H20.6977L20.3701 24.9635ZM29.7787 20.2377L29.713 19.742L29.713 19.742L29.7787 20.2377ZM36.965 21.3952L36.7556 21.8492L36.7556 21.8492L36.965 21.3952ZM41.9204 24.8231L42.2651 24.461L42.2651 24.4609L41.9204 24.8231ZM42.9674 25.8958L43.295 26.2735L43.6805 25.9391L43.3383 25.5605L42.9674 25.8958ZM42.7756 26.0621L42.5832 26.5236L42.8692 26.6429L43.1032 26.4398L42.7756 26.0621ZM36.6734 25.7335L36.7862 26.2206L36.7863 26.2206L36.6734 25.7335ZM29.3779 29.5625L29.0503 29.1848L29.0503 29.1848L29.3779 29.5625ZM25.1384 35.8785L25.6245 35.9953L25.6245 35.9953L25.1384 35.8785ZM25.8589 40.7349L26.1866 41.1126L26.5104 40.8317L26.2822 40.4687L25.8589 40.7349ZM17.3832 48.0861L17.0556 47.7084L16.6201 48.0861L17.0556 48.4638L17.3832 48.0861ZM19.5898 50L19.2622 50.3777L19.5898 50.6619L19.9174 50.3777L19.5898 50ZM47 26.2259L47.3276 26.6036L47.6757 26.3016L47.4031 25.9301L47 26.2259ZM46.3281 25.3101L46.7313 25.0143L46.4713 24.66L46.0866 24.8723L46.3281 25.3101ZM46.3272 25.3087L46.7387 25.0247L46.7313 25.014L46.7234 25.0037L46.3272 25.3087ZM46.3259 25.3071L45.9202 25.5993L45.9249 25.6058L45.9298 25.6121L46.3259 25.3071ZM46.3228 25.3028L46.7287 25.0105L46.7216 25.0012L46.3228 25.3028ZM46.3133 25.2902L45.914 25.5911L45.9145 25.5917L46.3133 25.2902ZM46.2824 25.2492L46.6817 24.9483L46.6806 24.9468L46.2824 25.2492ZM46.1727 25.1079L46.5652 24.798L46.1727 25.1079ZM45.7653 24.6143L45.3858 24.9398L45.3858 24.9398L45.7653 24.6143ZM44.2267 22.9998L44.5714 22.6376L44.5714 22.6376L44.2267 22.9998ZM38.4306 19.0056L38.2212 19.4596H38.2212L38.4306 19.0056ZM31.4731 17.4218L31.4301 16.9236L31.4715 17.9218L31.4731 17.4218ZM43.6137 5.21106L44.0325 5.48419L43.2869 4.83264L43.6137 5.21106ZM43.5951 5.23157L43.2013 4.9235L43.9424 5.59124L43.5951 5.23157ZM42.7652 5.73664L42.98 6.18814L43.929 5.73663L42.98 5.28514L42.7652 5.73664ZM40.5987 4.96657L40.4657 5.44855L40.4657 5.44855L40.5987 4.96657ZM18.2184 4.96657L18.0854 4.48459L18.0854 4.48459L18.2184 4.96657ZM16.0519 5.73664L15.8372 5.28511L14.8878 5.73664L15.8372 6.18817L16.0519 5.73664ZM18.2184 6.50668L18.3514 6.0247L18.3514 6.0247L18.2184 6.50668ZM40.5987 6.50668L40.4657 6.0247L40.4657 6.0247L40.5987 6.50668ZM15.2035 5.21106L15.5265 4.82947L14.7849 5.48453L15.2035 5.21106ZM15.2222 5.23158L14.8765 5.59282L15.6161 4.9237L15.2222 5.23158ZM42.4498 8.81613L42.88 9.07105L43.553 7.93532L42.2965 8.34023L42.4498 8.81613ZM16.3673 8.81613L16.5206 8.34023L15.264 7.93533L15.9372 9.07106L16.3673 8.81613ZM28.2365 38.6725L27.7621 38.8304L27.9985 39.5409L28.5641 39.0503L28.2365 38.6725ZM40.3181 28.1937L40.6458 28.5714L41.4532 27.8711L40.3981 27.7002L40.3181 28.1937ZM37.4784 28.3485L37.3656 27.8614L37.3656 27.8614L37.4784 28.3485ZM31.5845 31.4764L31.2569 31.0986L31.2569 31.0986L31.5845 31.4764ZM28.1932 36.431L27.707 36.3141L27.707 36.3141L28.1932 36.431ZM47.0394 6.08143C47.0608 5.96844 47.072 5.85337 47.072 5.73664H46.072C46.072 5.789 46.067 5.84195 46.0568 5.89586L47.0394 6.08143ZM47.072 5.73664C47.072 5.68521 47.0699 5.63315 47.0653 5.58058L46.0691 5.66797C46.071 5.6901 46.072 5.71296 46.072 5.73664H47.072ZM47.0669 5.64106C47.0704 5.53764 47.072 5.43414 47.072 5.33057H46.072C46.072 5.42354 46.0705 5.51584 46.0675 5.60749L47.0669 5.64106ZM46.572 4.83057H46.5098V5.83057H46.572V4.83057ZM46.9876 5.18356C46.7423 4.38602 45.9957 3.72996 45.0288 3.19332C44.0411 2.64515 42.724 2.1666 41.1716 1.77106C38.063 0.979021 33.9313 0.5 29.4086 0.5V1.5C33.8695 1.5 37.9152 1.97332 40.9247 2.7401C42.4313 3.12396 43.6584 3.57644 44.5435 4.06768C45.4494 4.57045 45.9041 5.06218 46.0319 5.47759L46.9876 5.18356ZM29.4086 0.5C24.886 0.5 20.7543 0.979021 17.6457 1.77106C16.0932 2.1666 14.7761 2.64514 13.7884 3.19332C12.8215 3.72996 12.0749 4.38601 11.8295 5.18353L12.7853 5.47762C12.9131 5.06219 13.3678 4.57045 14.2737 4.06768C15.1588 3.57645 16.386 3.12396 17.8926 2.7401C20.9021 1.97332 24.9478 1.5 29.4086 1.5V0.5ZM12.3074 4.83057H12.2453V5.83057H12.3074V4.83057ZM11.7453 5.33057C11.7453 5.43413 11.7469 5.53737 11.7502 5.64026L12.7497 5.60828C12.7467 5.51611 12.7453 5.42354 12.7453 5.33057H11.7453ZM11.7517 5.58265C11.7474 5.63387 11.7453 5.68522 11.7453 5.73664H12.7453C12.7453 5.71295 12.7463 5.68938 12.7482 5.6659L11.7517 5.58265ZM11.7453 5.73664C11.7453 5.85276 11.7562 5.96813 11.778 6.08232L12.7603 5.89497C12.7502 5.84226 12.7453 5.78961 12.7453 5.73664H11.7453ZM11.7705 6.02498C12.0274 9.55199 14.2211 12.5574 17.4286 14.6642C20.6372 16.7717 24.8985 18.0106 29.4086 18.0106V17.0106C25.0716 17.0106 21.0056 15.8173 17.9776 13.8284C14.9484 11.8387 12.9959 9.0831 12.7678 5.95231L11.7705 6.02498ZM29.4086 18.0106C29.5303 18.0106 29.6517 18.0096 29.7727 18.0078L29.7579 17.0079C29.6415 17.0096 29.525 17.0106 29.4086 17.0106V18.0106ZM29.7135 17.0106C29.557 17.0269 29.3996 17.0454 29.241 17.0665L29.3728 18.0578C29.5216 18.038 29.6697 18.0205 29.8171 18.0052L29.7135 17.0106ZM29.2412 17.0665C25.617 17.5471 21.7779 19.2528 17.8359 22.6719L18.4911 23.4273C22.3116 20.1136 25.9742 18.5085 29.3726 18.0578L29.2412 17.0665ZM17.8359 22.6719L0.67239 37.5585L1.32761 38.3139L18.4911 23.4273L17.8359 22.6719ZM0.672468 38.314L2.87952 40.2274L3.53459 39.4719L1.32753 37.5584L0.672468 38.314ZM3.53466 40.2274L20.6977 25.3412L20.0425 24.5858L2.87944 39.4719L3.53466 40.2274ZM20.6977 25.3412C24.167 22.3321 27.2516 21.0773 29.8445 20.7333L29.713 19.742C26.8947 20.1159 23.6335 21.4711 20.0425 24.5858L20.6977 25.3412ZM29.8445 20.7333C32.4368 20.3895 34.7569 20.927 36.7556 21.8492L37.1745 20.9412C35.0396 19.9562 32.5284 19.3686 29.713 19.742L29.8445 20.7333ZM36.7556 21.8492C38.7723 22.7796 40.4185 24.0842 41.5758 25.1854L42.2651 24.4609C41.056 23.3104 39.3203 21.9311 37.1745 20.9411L36.7556 21.8492ZM41.5757 25.1853C41.9857 25.5756 42.3278 25.9338 42.5964 26.231L43.3383 25.5605C43.0547 25.2466 42.6952 24.8703 42.2651 24.461L41.5757 25.1853ZM42.6398 25.5181L42.448 25.6844L43.1032 26.4398L43.295 26.2735L42.6398 25.5181ZM42.9681 25.6006C40.9318 24.7514 38.6608 24.7599 36.5606 25.2464L36.7863 26.2206C38.7466 25.7665 40.7929 25.777 42.5832 26.5236L42.9681 25.6006ZM36.5606 25.2464C33.8224 25.8806 31.1543 27.36 29.0503 29.1848L29.7055 29.9402C31.7058 28.2054 34.2303 26.8126 36.7862 26.2206L36.5606 25.2464ZM29.0503 29.1848C26.9565 31.0008 25.2397 33.3184 24.6522 35.7616L25.6245 35.9953C26.1465 33.8245 27.7047 31.6756 29.7055 29.9402L29.0503 29.1848ZM24.6522 35.7616C24.2291 37.5215 24.401 39.3556 25.4357 41.001L26.2822 40.4687C25.412 39.0848 25.2544 37.5345 25.6245 35.9953L24.6522 35.7616ZM25.5313 40.3571L17.0556 47.7084L17.7108 48.4638L26.1866 41.1126L25.5313 40.3571ZM17.0556 48.4638L19.2622 50.3777L19.9174 49.6223L17.7108 47.7084L17.0556 48.4638ZM19.9174 50.3777L47.3276 26.6036L46.6724 25.8481L19.2622 49.6223L19.9174 50.3777ZM47.4031 25.9301L46.7313 25.0143L45.925 25.6058L46.5969 26.5216L47.4031 25.9301ZM46.0866 24.8723L44.7701 25.5988L45.2533 26.4743L46.5697 25.7478L46.0866 24.8723ZM45.2533 26.4743C45.9116 26.111 46.2408 25.9289 46.4056 25.8374C46.4879 25.7918 46.5297 25.7685 46.5512 25.7564C46.5617 25.7506 46.5684 25.7468 46.5729 25.7442C46.5747 25.7432 46.5785 25.741 46.5827 25.7385C46.5839 25.7378 46.5902 25.7341 46.5978 25.7291C46.6001 25.7277 46.6121 25.72 46.6267 25.7091C46.6311 25.7058 46.6538 25.689 46.6793 25.6638C46.6886 25.6545 46.7245 25.619 46.7572 25.5638C46.7813 25.518 46.8117 25.4321 46.82 25.3933C46.8155 25.201 46.7387 25.0247 46.3272 25.3087C45.9157 25.5927 45.8389 25.4164 45.8344 25.2241C45.8427 25.1853 45.8731 25.0994 45.8972 25.0536C45.9299 24.9985 45.9658 24.9629 45.9751 24.9537C46.0006 24.9284 46.0233 24.9117 46.0276 24.9084C46.0422 24.8975 46.0543 24.8897 46.0565 24.8883C46.0641 24.8834 46.0702 24.8798 46.0711 24.8793C46.0747 24.8771 46.0772 24.8757 46.0764 24.8762C46.0759 24.8765 46.0723 24.8785 46.0623 24.8841C46.0428 24.895 46.0026 24.9175 45.9206 24.963C45.7568 25.0538 45.4283 25.2356 44.7701 25.5988L45.2533 26.4743ZM46.7234 25.0037L46.7221 25.0021L45.9298 25.6121L45.931 25.6137L46.7234 25.0037ZM46.7317 25.0149L46.7286 25.0106L45.9171 25.5949L45.9202 25.5993L46.7317 25.0149ZM46.7216 25.0012L46.7121 24.9886L45.9145 25.5917L45.924 25.6043L46.7216 25.0012ZM46.7126 24.9893L46.6817 24.9483L45.8831 25.5501L45.914 25.5911L46.7126 24.9893ZM46.6806 24.9468C46.6526 24.9099 46.614 24.8599 46.5652 24.798L45.7803 25.4177C45.8257 25.4752 45.8604 25.5202 45.8842 25.5516L46.6806 24.9468ZM46.5652 24.798C46.467 24.6737 46.3264 24.5004 46.1449 24.2888L45.3858 24.9398C45.5579 25.1404 45.6899 25.3033 45.7803 25.4177L46.5652 24.798ZM46.1449 24.2888C45.7823 23.866 45.2535 23.2867 44.5714 22.6376L43.882 23.362C44.5362 23.9845 45.0418 24.5387 45.3858 24.9398L46.1449 24.2888ZM44.5714 22.6376C43.2174 21.3493 41.2066 19.7356 38.6401 18.5516L38.2212 19.4596C40.6586 20.5841 42.58 22.1231 43.882 23.362L44.5714 22.6376ZM38.6401 18.5516C36.6015 17.6111 34.1856 16.9306 31.4747 16.9218L31.4715 17.9218C34.0142 17.93 36.2885 18.568 38.2212 19.4596L38.6401 18.5516ZM31.5161 17.9199C35.5774 17.5695 39.3255 16.2178 42.1268 14.1502C44.9287 12.0821 46.8101 9.27394 47.0468 6.02498L46.0495 5.9523C45.8392 8.83769 44.1655 11.4025 41.5329 13.3456C38.8998 15.2891 35.3338 16.5868 31.4301 16.9236L31.5161 17.9199ZM43.6137 5.21106C43.1949 4.93793 43.1949 4.93782 43.195 4.93772C43.195 4.93768 43.1951 4.93757 43.1951 4.9375C43.1952 4.93736 43.1953 4.93722 43.1954 4.93707C43.1956 4.93679 43.1958 4.93651 43.196 4.93622C43.1964 4.93566 43.1967 4.9351 43.1971 4.93454C43.1978 4.93342 43.1986 4.93232 43.1993 4.93124C43.2008 4.92906 43.2022 4.92695 43.2037 4.9249C43.2065 4.9208 43.2093 4.91693 43.212 4.9133C43.2175 4.90604 43.2225 4.89971 43.2271 4.89427C43.2362 4.88344 43.2435 4.87603 43.2478 4.87189L43.9424 5.59124C43.9608 5.57354 43.9773 5.55588 43.9922 5.53818C43.9997 5.52932 44.0067 5.5204 44.0134 5.51142C44.0168 5.50692 44.0201 5.50241 44.0232 5.49787C44.0248 5.49561 44.0264 5.49333 44.0279 5.49105C44.0287 5.48991 44.0295 5.48877 44.0302 5.48763C44.0306 5.48706 44.031 5.48649 44.0313 5.48591C44.0315 5.48563 44.0317 5.48534 44.0319 5.48505C44.032 5.48491 44.0321 5.48477 44.0322 5.48462C44.0322 5.48455 44.0323 5.48445 44.0323 5.48441C44.0324 5.4843 44.0325 5.48419 43.6137 5.21106ZM43.9889 5.53963C43.9826 5.54769 43.9756 5.55577 43.9676 5.56394C43.9637 5.56804 43.9595 5.5722 43.9549 5.57644C43.9527 5.57856 43.9504 5.58071 43.948 5.58288C43.9467 5.58397 43.9455 5.58506 43.9443 5.58616C43.9436 5.58671 43.943 5.58726 43.9424 5.58782C43.9421 5.5881 43.9417 5.58837 43.9414 5.58865C43.9413 5.58879 43.9411 5.58893 43.9409 5.58907C43.9409 5.58914 43.9408 5.58921 43.9407 5.58928C43.9407 5.58931 43.9406 5.58936 43.9406 5.58938C43.9405 5.58943 43.9405 5.58949 43.6137 5.21106C43.2869 4.83264 43.2868 4.83269 43.2868 4.83274C43.2867 4.83276 43.2867 4.83281 43.2866 4.83285C43.2865 4.83292 43.2865 4.83299 43.2864 4.83306C43.2862 4.8332 43.2861 4.83334 43.2859 4.83348C43.2856 4.83377 43.2852 4.83406 43.2849 4.83435C43.2842 4.83493 43.2836 4.83552 43.2829 4.83612C43.2815 4.83733 43.2801 4.83858 43.2787 4.83988C43.2758 4.84247 43.2728 4.84525 43.2696 4.84822C43.2633 4.85415 43.2565 4.86086 43.2492 4.86837C43.2347 4.88334 43.2183 4.90167 43.2013 4.9235L43.9889 5.53963ZM42.98 5.28514C42.4372 5.0269 41.6945 4.7503 40.7317 4.48459L40.4657 5.44855C41.3874 5.70292 42.0727 5.96089 42.5504 6.18814L42.98 5.28514ZM40.7317 4.48459C37.9533 3.71778 33.9496 3.20665 29.4086 3.20665V4.20665C33.8862 4.20665 37.7962 4.71181 40.4657 5.44855L40.7317 4.48459ZM29.4086 3.20665C24.8676 3.20665 20.864 3.71778 18.0854 4.48459L18.3514 5.44855C21.0211 4.71181 24.9311 4.20665 29.4086 4.20665V3.20665ZM18.0854 4.48459C17.1226 4.75031 16.3801 5.02691 15.8372 5.28511L16.2667 6.18817C16.7446 5.96088 17.4298 5.70291 18.3514 5.44855L18.0854 4.48459ZM15.8372 6.18817C16.3801 6.44637 17.1226 6.72297 18.0854 6.98867L18.3514 6.0247C17.4298 5.77037 16.7446 5.5124 16.2667 5.28511L15.8372 6.18817ZM18.0854 6.98867C20.864 7.75547 24.8676 8.26663 29.4086 8.26663V7.26663C24.9311 7.26663 21.0211 6.76144 18.3514 6.0247L18.0854 6.98867ZM29.4086 8.26663C33.9496 8.26663 37.9533 7.75547 40.7317 6.98866L40.4657 6.0247C37.7962 6.76144 33.8862 7.26663 29.4086 7.26663V8.26663ZM40.7317 6.98867C41.6945 6.72298 42.4372 6.44639 42.98 6.18814L42.5504 5.28514C42.0727 5.5124 41.3874 5.77036 40.4657 6.0247L40.7317 6.98867ZM15.2035 5.21106C14.8804 5.59265 14.8803 5.5926 14.8802 5.59255C14.8802 5.59253 14.8801 5.59247 14.8801 5.59244C14.88 5.59237 14.8799 5.59229 14.8799 5.59222C14.8797 5.59208 14.8795 5.59194 14.8793 5.59179C14.879 5.59151 14.8787 5.59122 14.8783 5.59094C14.8777 5.59036 14.877 5.5898 14.8764 5.58923C14.875 5.58809 14.8738 5.58696 14.8725 5.58583C14.8699 5.58358 14.8675 5.58135 14.8651 5.57913C14.8603 5.5747 14.8558 5.57031 14.8515 5.56595C14.843 5.55726 14.8352 5.54846 14.8282 5.53945L15.6161 4.9237C15.5983 4.90092 15.5812 4.88187 15.566 4.86636C15.5584 4.85859 15.5513 4.85165 15.5447 4.84553C15.5413 4.84246 15.5382 4.8396 15.5351 4.83692C15.5336 4.83559 15.5322 4.8343 15.5307 4.83306C15.53 4.83244 15.5293 4.83183 15.5286 4.83123C15.5283 4.83093 15.5279 4.83063 15.5276 4.83034C15.5274 4.8302 15.5272 4.83005 15.5271 4.8299C15.527 4.82983 15.5269 4.82976 15.5268 4.82969C15.5268 4.82965 15.5267 4.8296 15.5267 4.82958C15.5266 4.82953 15.5265 4.82947 15.2035 5.21106ZM15.5679 4.87033C15.5722 4.87449 15.5796 4.882 15.589 4.89301C15.5937 4.89854 15.5989 4.905 15.6044 4.91241C15.6072 4.91611 15.6101 4.92006 15.613 4.92426C15.6145 4.92636 15.616 4.92852 15.6175 4.93074C15.6182 4.93185 15.619 4.93298 15.6197 4.93412C15.6201 4.93469 15.6205 4.93527 15.6209 4.93584C15.6211 4.93613 15.6213 4.93642 15.6215 4.93672C15.6216 4.93686 15.6217 4.93701 15.6217 4.93715C15.6218 4.93723 15.6219 4.93734 15.6219 4.93737C15.622 4.93748 15.622 4.93759 15.2035 5.21106C14.7849 5.48453 14.7849 5.48464 14.785 5.48475C14.785 5.48479 14.7851 5.4849 14.7852 5.48497C14.7852 5.48512 14.7853 5.48527 14.7854 5.48541C14.7856 5.4857 14.7858 5.486 14.786 5.48629C14.7864 5.48688 14.7868 5.48746 14.7872 5.48805C14.788 5.48922 14.7887 5.49038 14.7895 5.49155C14.7911 5.49388 14.7927 5.4962 14.7943 5.49851C14.7976 5.50314 14.8009 5.50774 14.8043 5.51231C14.8112 5.52144 14.8184 5.53048 14.826 5.53944C14.8411 5.55731 14.8579 5.57508 14.8765 5.59282L15.5679 4.87033ZM42.2965 8.34023C39.214 9.33351 34.5948 9.97328 29.4086 9.97328V10.9733C34.6597 10.9733 39.3902 10.3274 42.6032 9.29204L42.2965 8.34023ZM29.4086 9.97328C24.2223 9.97328 19.6033 9.33352 16.5206 8.34023L16.2139 9.29204C19.4271 10.3274 24.1574 10.9733 29.4086 10.9733V9.97328ZM15.9372 9.07106C18.073 12.6747 23.1633 15.3039 29.4086 15.3039V14.3039C23.3987 14.3039 18.7003 11.7718 16.7974 8.5612L15.9372 9.07106ZM29.4086 15.3039C35.654 15.3039 40.7443 12.6747 42.88 9.07105L42.0197 8.56122C40.117 11.7718 35.4186 14.3039 29.4086 14.3039V15.3039ZM28.5641 39.0503L40.6458 28.5714L39.9905 27.816L27.9089 38.2948L28.5641 39.0503ZM40.3981 27.7002C39.4674 27.5494 38.4469 27.611 37.3656 27.8614L37.5912 28.8357C38.576 28.6076 39.4628 28.5617 40.2382 28.6873L40.3981 27.7002ZM37.3656 27.8614C35.2652 28.3479 33.06 29.5347 31.2569 31.0986L31.9121 31.8541C33.6113 30.3803 35.6729 29.28 37.5912 28.8357L37.3656 27.8614ZM31.2569 31.0986C29.4543 32.6623 28.1359 34.5309 27.707 36.3141L28.6793 36.5479C29.0427 35.0368 30.2028 33.3368 31.9121 31.8541L31.2569 31.0986ZM27.707 36.3141C27.4998 37.1757 27.4943 38.0256 27.7621 38.8304L28.711 38.5147C28.5138 37.9221 28.5064 37.267 28.6793 36.5479L27.707 36.3141Z" fill="black" mask="url(#path-1-outside-1_375_454)"/>
</svg>
