<svg width="101" height="42" viewBox="0 0 101 42" fill="none" xmlns="http://www.w3.org/2000/svg">
<path d="M43.3267 1.5636C42.0117 1.92526 40.8161 2.37734 40.6368 2.55817C40.4575 2.69379 40.8161 2.69379 41.4737 2.51296C43.6256 1.92526 52.1736 2.19651 55.5211 2.96504C60.2435 4.05002 64.906 5.90354 74.1714 10.4695C78.6546 12.6395 83.9747 15.0807 86.0071 15.8492C87.9797 16.5726 89.5937 17.3863 89.5937 17.6123C89.5937 18.4261 85.3495 21.6358 81.2847 23.8962C77.1004 26.247 68.5524 30.3157 68.2535 30.0897C68.1339 29.9993 68.7915 28.7334 69.6881 27.2868C71.063 25.0264 71.3619 23.9866 71.3619 20.7769C71.3619 17.3411 71.1825 16.6178 69.3892 13.9053C64.4876 6.31041 54.3854 3.41711 41.4139 5.85833C25.1547 8.97766 12.5419 15.1711 2.79836 24.936C1.54305 26.2018 0.526855 27.3772 0.526855 27.6032C0.526855 27.8293 1.72238 28.0101 3.21679 28.0101C7.22181 28.0101 11.5257 29.2759 24.4374 34.2488C36.7513 39.0408 41.7726 40.4422 47.9893 40.9395C51.9345 41.256 56.896 40.6231 59.7055 39.4929C61.1401 38.9052 61.1401 38.9052 59.1077 39.2216C55.4016 39.8093 48.1686 39.4929 44.7614 38.6339C39.5011 37.3229 33.7625 34.9721 25.2145 30.6322C20.8508 28.417 15.7698 26.1114 13.9765 25.4785C10.0313 24.1675 10.0911 23.8962 14.9927 20.5508C20.0737 17.0698 30.6542 11.7353 32.4474 11.7353C32.6268 11.7353 32.029 12.9107 31.1324 14.3122C29.7575 16.5726 29.5184 17.5219 29.5782 21.0029C29.5782 25.9306 30.8335 28.2814 35.0178 31.6719C43.2072 38.3175 55.282 38.5887 72.0792 32.4857C82.54 28.6882 91.8652 23.1277 97.6037 17.1603L100.473 14.2218L96.0495 13.6793C92.4629 13.2272 89.3546 12.2778 78.535 8.16393C71.3021 5.45146 63.6507 2.739 61.4988 2.19651C56.5373 0.885483 46.8535 0.569027 43.3267 1.5636ZM51.815 7.30498C51.9943 7.89268 51.6357 8.11872 50.4999 8.11872C49.3044 8.11872 48.9457 7.89268 48.9457 7.16935C48.9457 6.49124 49.2446 6.2652 50.2608 6.40082C51.0379 6.49124 51.6954 6.89811 51.815 7.30498ZM47.9893 8.16393C48.1686 8.93246 48.348 10.2887 48.348 11.1024C48.348 12.5491 48.4675 12.6395 50.4401 12.6395C52.4725 12.6395 52.5323 12.5943 52.5323 10.6956C52.5323 8.43517 53.0703 6.76249 53.7876 6.76249C55.4613 6.76249 60.901 8.75163 60.901 9.33932C60.901 9.70099 60.5423 9.92702 60.1837 9.7914C59.7652 9.65578 58.3904 9.24891 57.1949 8.84204L54.9234 8.11872V10.3791C54.9234 12.5943 54.9831 12.6395 56.7167 12.6395C58.0915 12.6395 58.5099 12.4587 58.5099 11.7353C58.5099 11.238 58.0915 10.8312 57.6133 10.8312C57.0753 10.8312 56.896 11.1024 57.1351 11.5545C57.3742 12.097 57.2546 12.2326 56.6569 12.097C55.7005 11.871 55.282 10.6503 55.7602 9.65578C56.5373 8.16393 62.3356 11.6901 64.5474 14.9451L65.6831 16.7082H63.8898C62.9334 16.7082 62.0965 16.4821 62.0965 16.2561C62.0965 15.9849 62.515 15.804 62.9932 15.804C63.4714 15.804 63.8898 15.578 63.8898 15.3519C63.8898 15.0807 63.2323 14.8999 62.3954 14.8999C61.1401 14.8999 60.901 15.1259 60.901 16.2561C60.901 17.5671 60.9608 17.6123 63.83 17.6123C66.6993 17.6123 66.8189 17.5671 66.6993 16.4369C66.52 14.5382 67.7753 14.6738 68.5524 16.6178C68.9708 17.6123 69.2697 18.5165 69.2697 18.6521C69.2697 18.7877 67.4166 19.0138 65.0854 19.1946C61.0206 19.5111 60.901 19.5563 60.901 20.7769C60.901 22.1783 61.977 22.5852 66.1015 22.5852C67.4764 22.5852 68.7317 22.766 68.911 22.9468C69.449 23.625 67.8948 26.6539 67.058 26.6539C66.4004 26.6539 66.2809 26.2922 66.5798 25.2976L66.9982 23.9414H63.9496C60.9608 23.9414 60.901 23.9866 60.901 25.2976C60.901 26.2018 61.1999 26.6539 61.7976 26.6539C62.2759 26.6539 62.8138 26.6539 62.9932 26.6539C63.1725 26.6539 63.2921 26.5183 63.2323 26.2922C63.1725 26.1114 62.9334 26.021 62.6345 26.1114C62.3356 26.1566 62.0965 25.8853 62.0965 25.5237C62.0965 25.0716 62.6943 24.8456 63.9496 24.8456C66.0418 24.8456 66.0418 25.0716 63.5909 27.9649C62.0368 29.8636 57.7926 32.5309 56.2982 32.5309C55.82 32.5309 55.5211 32.0336 55.5211 31.1747C55.5211 30.2705 55.82 29.8184 56.4178 29.8184C56.896 29.8184 57.3144 30.1349 57.3144 30.5417C57.3144 30.9034 57.6133 31.0842 57.9122 30.9486C58.2111 30.813 58.5099 30.2705 58.5099 29.7732C58.5099 29.1403 58.0915 28.9143 56.7167 28.9143C54.9831 28.9143 54.9234 28.9595 54.9234 31.1747C54.9234 33.6159 55.3418 33.8419 57.9122 32.7569C59.7055 31.9884 60.901 31.898 60.901 32.5309C60.901 33.1638 56.2384 34.7461 54.5049 34.7913C53.1301 34.7913 52.8312 34.1132 52.4128 30.4965C52.2334 29.3211 51.9943 29.1403 50.4401 29.1403C48.7066 29.1403 48.6468 29.2307 48.2284 31.8528C47.9893 33.3446 47.6904 34.7009 47.6306 34.8817C47.3915 35.2886 41.3541 33.7515 40.3977 33.0282C39.2022 32.124 40.577 31.898 42.6692 32.6665C43.8647 33.0734 45.0603 33.435 45.3591 33.435C45.7178 33.435 45.9569 32.3953 45.9569 31.1747C45.9569 28.9595 45.8971 28.9143 44.1636 28.9143C42.7888 28.9143 42.3703 29.1403 42.3703 29.7732C42.3703 30.2705 42.6692 30.813 42.9681 30.9486C43.3267 31.0842 43.5658 30.9034 43.5658 30.5417C43.5658 30.1349 43.9843 29.8184 44.4625 29.8184C45.0603 29.8184 45.3591 30.2705 45.3591 31.1747C45.3591 32.8925 44.4027 32.8925 41.2346 31.1747C39.0228 29.954 35.1972 26.2018 35.1972 25.2072C35.1972 25.0264 36.034 24.8456 36.9904 24.8456C38.186 24.8456 38.7837 25.0716 38.7837 25.5237C38.7837 25.9306 38.4251 26.0662 37.8273 25.8853C37.11 25.7045 36.9307 25.7949 37.11 26.247C37.2893 26.6087 37.8871 26.8799 38.5446 26.8799C39.3815 26.8799 39.6804 26.5635 39.6804 25.5237C39.6804 24.2127 39.5608 24.1675 36.8111 24.0318L33.8821 23.8962L34.3005 25.2524C34.5994 26.3374 34.4798 26.6539 33.7625 26.6539C32.8659 26.6539 31.3715 23.6702 31.9692 22.9468C32.1486 22.766 33.4039 22.5852 34.7787 22.5852C38.9033 22.5852 39.9793 22.1783 39.9793 20.7769C39.9793 19.5563 39.8597 19.5111 35.7949 19.1946C33.5234 19.0138 31.6106 18.7877 31.6106 18.6521C31.6106 18.5165 31.9095 17.6123 32.3279 16.6178C33.105 14.6738 34.3603 14.5382 34.181 16.4369C34.0614 17.5671 34.181 17.6123 37.0502 17.6123C39.9195 17.6123 39.9793 17.5671 39.9793 16.2561C39.9793 15.1259 39.7402 14.8999 38.4849 14.8999C37.648 14.8999 36.9904 15.0807 36.9904 15.3519C36.9904 15.578 37.4089 15.804 37.8871 15.804C38.3653 15.804 38.7837 15.9849 38.7837 16.2561C38.7837 16.4821 37.9469 16.7082 36.9307 16.7082H35.0776L36.8111 14.3122C37.9469 12.8203 39.6206 11.4189 41.4737 10.4695C44.5223 8.93246 45.5982 9.02287 45.2396 10.8764C45.0603 12.0518 43.5658 12.6395 43.5658 11.5545C43.5658 11.1476 43.3267 10.8312 42.9681 10.8312C42.6692 10.8312 42.3703 11.238 42.3703 11.7353C42.3703 12.4587 42.7888 12.6395 44.1636 12.6395C45.8971 12.6395 45.9569 12.5943 45.9569 10.3791V8.11872L43.7452 8.84204C42.4899 9.24891 41.115 9.65578 40.7564 9.7914C40.3379 9.92702 39.9793 9.74619 39.9793 9.38453C39.9793 8.79683 42.2508 7.80226 45.3591 7.03373C47.1524 6.62686 47.6306 6.80769 47.9893 8.16393ZM51.3966 9.11329C51.3368 9.33932 51.3368 10.0626 51.3368 10.8312C51.3368 12.6395 49.7826 12.5943 49.3044 10.786C49.1251 10.0174 49.1251 9.2037 49.3044 8.93246C49.7228 8.48038 51.3966 8.616 51.3966 9.11329ZM39.3815 10.1531C39.3815 10.2887 38.3653 11.4189 37.1698 12.6395C35.2569 14.5834 34.0016 15.1259 34.0016 14.0409C34.0016 13.2724 37.648 9.92702 38.4849 9.92702C38.9631 9.92702 39.3815 10.0174 39.3815 10.1531ZM63.83 10.786C65.8624 12.323 67.1177 13.9957 66.52 14.4478C66.1613 14.719 65.0854 14.0409 63.7105 12.6395C62.515 11.4189 61.4988 10.2887 61.4988 10.1531C61.4988 9.65578 62.7541 9.97223 63.83 10.786ZM33.4039 21.0029C33.4039 21.7262 33.0452 22.1331 32.5072 22.1331C31.9692 22.1331 31.6106 21.7262 31.6106 21.0029C31.6106 20.2796 31.9692 19.8727 32.5072 19.8727C33.0452 19.8727 33.4039 20.2796 33.4039 21.0029ZM38.6642 20.8673C38.8435 21.5454 38.4251 21.681 36.7513 21.681C34.958 21.681 34.5994 21.5002 34.5994 20.7317C34.5994 19.9631 34.8983 19.8275 36.5122 19.9631C37.8273 20.0536 38.5446 20.37 38.6642 20.8673ZM66.2809 20.7769C66.2809 21.5002 65.8624 21.681 64.2485 21.681C61.977 21.681 60.8412 20.9125 62.1563 20.2796C62.6345 20.0536 63.7105 19.8727 64.6669 19.8727C65.8624 19.8727 66.2809 20.0988 66.2809 20.7769ZM69.2697 21.0029C69.2697 21.7262 68.911 22.1331 68.373 22.1331C67.8351 22.1331 67.4764 21.7262 67.4764 21.0029C67.4764 20.2796 67.8351 19.8727 68.373 19.8727C68.911 19.8727 69.2697 20.2796 69.2697 21.0029ZM37.4687 29.2307C40.1586 31.9884 39.0826 32.8021 36.1536 30.2253C34.958 29.1855 34.0016 28.0101 34.0016 27.6937C34.0016 26.5183 35.5558 27.1964 37.4687 29.2307ZM66.8786 27.6937C66.8786 28.417 62.8138 32.0788 62.0368 32.0788C61.0803 32.0788 61.439 31.2199 63.4714 29.1855C65.3842 27.1964 66.8786 26.5183 66.8786 27.6937ZM51.3368 30.4513C51.3368 31.039 51.5161 31.8528 51.6954 32.2596C51.9943 32.8021 51.6954 32.983 50.4999 32.983C48.8262 32.983 48.7664 32.8925 49.3044 30.7678C49.7826 29.0951 51.3368 28.8691 51.3368 30.4513ZM51.9345 34.5652C51.9345 34.9721 51.3966 35.2433 50.4401 35.2433C49.4837 35.2433 48.9457 34.9721 48.9457 34.5652C48.9457 34.1584 49.4837 33.8871 50.4401 33.8871C51.3966 33.8871 51.9345 34.1584 51.9345 34.5652Z" fill="white"/>
<path d="M41.1747 13.4532C40.816 13.5436 40.5769 16.4821 40.5769 21.0481V28.4622H50.44C59.8847 28.4622 60.3031 28.417 60.3031 27.558C60.3031 26.6991 59.8847 26.6539 53.3093 26.6539H46.3154L49.2445 25.2524L52.1137 23.851L54.9232 25.0264C58.3305 26.4278 58.3305 26.4278 59.1076 25.3428C59.6455 24.5743 59.3467 24.3031 56.5372 23.3085L53.4288 22.2235L56.8958 22.1783C59.8847 22.1331 60.3031 22.0427 60.3031 21.2289C60.3031 20.4152 59.8847 20.3248 56.9556 20.3248C54.1461 20.3248 53.6679 20.1892 53.8472 19.511C53.9668 18.9233 54.7439 18.6973 56.8958 18.6069C59.2271 18.4713 59.7651 18.3356 59.5858 17.7027C59.4064 17.0698 58.5696 16.889 54.8037 16.7986C51.4562 16.7082 50.1411 16.4821 49.902 16.0301C49.6629 15.4424 50.4998 15.3519 54.983 15.3519C60.1238 15.3519 60.3629 15.3067 60.1835 14.4026C60.0042 13.4984 59.6455 13.4532 50.9182 13.3628C45.897 13.3628 41.5333 13.3628 41.1747 13.4532ZM47.1523 15.6232C47.1523 15.804 46.6143 16.6178 45.897 17.4767C44.8808 18.6973 44.7612 19.1042 45.359 19.6467C45.9568 20.1892 45.897 20.3248 45.1199 20.3248C44.5819 20.3248 44.1635 20.6864 44.1635 21.1837C44.1635 21.9523 44.6417 22.0879 47.0327 22.2235L49.8422 22.3591L47.7501 23.3537C46.6143 23.9414 45.4188 24.4839 45.0601 24.5743C44.7015 24.6647 44.7612 24.9812 45.2395 25.3428C46.3154 26.2018 46.1361 26.6539 44.7612 26.6539C43.6255 26.6539 43.5657 26.3374 43.5657 21.0029V15.3519H45.359C46.3752 15.3519 47.1523 15.4876 47.1523 15.6232ZM51.0378 19.4206C51.0378 19.8727 50.2607 20.144 48.6467 20.2344L46.3154 20.37L47.4512 19.4206C48.7065 18.3809 51.0378 18.3809 51.0378 19.4206Z" fill="white"/>
</svg>
