<svg width="426" height="42" viewBox="0 0 426 42" fill="none" xmlns="http://www.w3.org/2000/svg">
<path d="M42.7999 1.5636C41.4848 1.92526 40.2893 2.37734 40.11 2.55817C39.9306 2.69379 40.2893 2.69379 40.9468 2.51296C43.0988 1.92526 51.6468 2.19651 54.9943 2.96504C59.7166 4.05002 64.3792 5.90354 73.6445 10.4695C78.1277 12.6395 83.4478 15.0807 85.4802 15.8492C87.4528 16.5726 89.0668 17.3863 89.0668 17.6123C89.0668 18.4261 84.8227 21.6358 80.7579 23.8962C76.5735 26.247 68.0255 30.3157 67.7266 30.0897C67.6071 29.9993 68.2646 28.7334 69.1613 27.2868C70.5361 25.0264 70.835 23.9866 70.835 20.7769C70.835 17.3411 70.6557 16.6178 68.8624 13.9053C63.9607 6.31041 53.8585 3.41711 40.887 5.85833C24.6279 8.97766 12.0151 15.1711 2.2715 24.936C1.0162 26.2018 0 27.3772 0 27.6032C0 27.8293 1.19553 28.0101 2.68994 28.0101C6.69495 28.0101 10.9989 29.2759 23.9106 34.2488C36.2245 39.0408 41.2457 40.4422 47.4624 40.9395C51.4077 41.256 56.3691 40.6231 59.1786 39.4929C60.6133 38.9052 60.6133 38.9052 58.5809 39.2216C54.8747 39.8093 47.6418 39.4929 44.2345 38.6339C38.9742 37.3229 33.2357 34.9721 24.6876 30.6322C20.324 28.417 15.243 26.1114 13.4497 25.4785C9.50444 24.1675 9.56422 23.8962 14.4659 20.5508C19.5469 17.0698 30.1273 11.7353 31.9206 11.7353C32.0999 11.7353 31.5022 12.9107 30.6055 14.3122C29.2306 16.5726 28.9915 17.5219 29.0513 21.0029C29.0513 25.9306 30.3066 28.2814 34.491 31.6719C42.6803 38.3175 54.7552 38.5887 71.5523 32.4857C82.0132 28.6882 91.3383 23.1277 97.0768 17.1603L99.9461 14.2218L95.5227 13.6793C91.9361 13.2272 88.8277 12.2778 78.0082 8.16393C70.7752 5.45146 63.1239 2.739 60.9719 2.19651C56.0105 0.885483 46.3267 0.569027 42.7999 1.5636ZM51.2881 7.30498C51.4675 7.89268 51.1088 8.11872 49.9731 8.11872C48.7775 8.11872 48.4189 7.89268 48.4189 7.16935C48.4189 6.49124 48.7178 6.2652 49.7339 6.40082C50.511 6.49124 51.1686 6.89811 51.2881 7.30498ZM47.4624 8.16393C47.6418 8.93246 47.8211 10.2887 47.8211 11.1024C47.8211 12.5491 47.9407 12.6395 49.9133 12.6395C51.9457 12.6395 52.0055 12.5943 52.0055 10.6956C52.0055 8.43517 52.5434 6.76249 53.2608 6.76249C54.9345 6.76249 60.3741 8.75163 60.3741 9.33932C60.3741 9.70099 60.0155 9.92702 59.6568 9.7914C59.2384 9.65578 57.8635 9.24891 56.668 8.84204L54.3965 8.11872V10.3791C54.3965 12.5943 54.4563 12.6395 56.1898 12.6395C57.5647 12.6395 57.9831 12.4587 57.9831 11.7353C57.9831 11.238 57.5647 10.8312 57.0864 10.8312C56.5485 10.8312 56.3691 11.1024 56.6082 11.5545C56.8473 12.097 56.7278 12.2326 56.13 12.097C55.1736 11.871 54.7552 10.6503 55.2334 9.65578C56.0105 8.16393 61.8088 11.6901 64.0205 14.9451L65.1563 16.7082H63.363C62.4065 16.7082 61.5697 16.4821 61.5697 16.2561C61.5697 15.9849 61.9881 15.804 62.4663 15.804C62.9445 15.804 63.363 15.578 63.363 15.3519C63.363 15.0807 62.7054 14.8999 61.8686 14.8999C60.6133 14.8999 60.3741 15.1259 60.3741 16.2561C60.3741 17.5671 60.4339 17.6123 63.3032 17.6123C66.1725 17.6123 66.292 17.5671 66.1725 16.4369C65.9931 14.5382 67.2484 14.6738 68.0255 16.6178C68.444 17.6123 68.7428 18.5165 68.7428 18.6521C68.7428 18.7877 66.8898 19.0138 64.5585 19.1946C60.4937 19.5111 60.3741 19.5563 60.3741 20.7769C60.3741 22.1783 61.4501 22.5852 65.5747 22.5852C66.9495 22.5852 68.2048 22.766 68.3842 22.9468C68.9222 23.625 67.368 26.6539 66.5311 26.6539C65.8736 26.6539 65.754 26.2922 66.0529 25.2976L66.4713 23.9414H63.4227C60.4339 23.9414 60.3741 23.9866 60.3741 25.2976C60.3741 26.2018 60.673 26.6539 61.2708 26.6539C61.749 26.6539 62.287 26.6539 62.4663 26.6539C62.6456 26.6539 62.7652 26.5183 62.7054 26.2922C62.6456 26.1114 62.4065 26.021 62.1077 26.1114C61.8088 26.1566 61.5697 25.8853 61.5697 25.5237C61.5697 25.0716 62.1674 24.8456 63.4227 24.8456C65.5149 24.8456 65.5149 25.0716 63.0641 27.9649C61.5099 29.8636 57.2658 32.5309 55.7714 32.5309C55.2932 32.5309 54.9943 32.0336 54.9943 31.1747C54.9943 30.2705 55.2932 29.8184 55.8909 29.8184C56.3691 29.8184 56.7876 30.1349 56.7876 30.5417C56.7876 30.9034 57.0864 31.0842 57.3853 30.9486C57.6842 30.813 57.9831 30.2705 57.9831 29.7732C57.9831 29.1403 57.5647 28.9143 56.1898 28.9143C54.4563 28.9143 54.3965 28.9595 54.3965 31.1747C54.3965 33.6159 54.8149 33.8419 57.3853 32.7569C59.1786 31.9884 60.3741 31.898 60.3741 32.5309C60.3741 33.1638 55.7116 34.7461 53.9781 34.7913C52.6032 34.7913 52.3043 34.1132 51.8859 30.4965C51.7066 29.3211 51.4675 29.1403 49.9133 29.1403C48.1798 29.1403 48.12 29.2307 47.7016 31.8528C47.4624 33.3446 47.1636 34.7009 47.1038 34.8817C46.8647 35.2886 40.8273 33.7515 39.8708 33.0282C38.6753 32.124 40.0502 31.898 42.1423 32.6665C43.3379 33.0734 44.5334 33.435 44.8323 33.435C45.1909 33.435 45.43 32.3953 45.43 31.1747C45.43 28.9595 45.3703 28.9143 43.6368 28.9143C42.2619 28.9143 41.8435 29.1403 41.8435 29.7732C41.8435 30.2705 42.1423 30.813 42.4412 30.9486C42.7999 31.0842 43.039 30.9034 43.039 30.5417C43.039 30.1349 43.4574 29.8184 43.9356 29.8184C44.5334 29.8184 44.8323 30.2705 44.8323 31.1747C44.8323 32.8925 43.8759 32.8925 40.7077 31.1747C38.496 29.954 34.6703 26.2018 34.6703 25.2072C34.6703 25.0264 35.5072 24.8456 36.4636 24.8456C37.6591 24.8456 38.2569 25.0716 38.2569 25.5237C38.2569 25.9306 37.8982 26.0662 37.3005 25.8853C36.5831 25.7045 36.4038 25.7949 36.5831 26.247C36.7625 26.6087 37.3602 26.8799 38.0178 26.8799C38.8546 26.8799 39.1535 26.5635 39.1535 25.5237C39.1535 24.2127 39.034 24.1675 36.2843 24.0318L33.3552 23.8962L33.7737 25.2524C34.0725 26.3374 33.953 26.6539 33.2357 26.6539C32.339 26.6539 30.8446 23.6702 31.4424 22.9468C31.6217 22.766 32.877 22.5852 34.2519 22.5852C38.3764 22.5852 39.4524 22.1783 39.4524 20.7769C39.4524 19.5563 39.3329 19.5111 35.2681 19.1946C32.9966 19.0138 31.0837 18.7877 31.0837 18.6521C31.0837 18.5165 31.3826 17.6123 31.801 16.6178C32.5781 14.6738 33.8334 14.5382 33.6541 16.4369C33.5345 17.5671 33.6541 17.6123 36.5234 17.6123C39.3926 17.6123 39.4524 17.5671 39.4524 16.2561C39.4524 15.1259 39.2133 14.8999 37.958 14.8999C37.1211 14.8999 36.4636 15.0807 36.4636 15.3519C36.4636 15.578 36.882 15.804 37.3602 15.804C37.8384 15.804 38.2569 15.9849 38.2569 16.2561C38.2569 16.4821 37.42 16.7082 36.4038 16.7082H34.5507L36.2843 14.3122C37.42 12.8203 39.0938 11.4189 40.9468 10.4695C43.9954 8.93246 45.0714 9.02287 44.7127 10.8764C44.5334 12.0518 43.039 12.6395 43.039 11.5545C43.039 11.1476 42.7999 10.8312 42.4412 10.8312C42.1423 10.8312 41.8435 11.238 41.8435 11.7353C41.8435 12.4587 42.2619 12.6395 43.6368 12.6395C45.3703 12.6395 45.43 12.5943 45.43 10.3791V8.11872L43.2183 8.84204C41.963 9.24891 40.5882 9.65578 40.2295 9.7914C39.8111 9.92702 39.4524 9.74619 39.4524 9.38453C39.4524 8.79683 41.7239 7.80226 44.8323 7.03373C46.6256 6.62686 47.1038 6.80769 47.4624 8.16393ZM50.8697 9.11329C50.8099 9.33932 50.8099 10.0626 50.8099 10.8312C50.8099 12.6395 49.2557 12.5943 48.7775 10.786C48.5982 10.0174 48.5982 9.2037 48.7775 8.93246C49.196 8.48038 50.8697 8.616 50.8697 9.11329ZM38.8546 10.1531C38.8546 10.2887 37.8384 11.4189 36.6429 12.6395C34.7301 14.5834 33.4748 15.1259 33.4748 14.0409C33.4748 13.2724 37.1211 9.92702 37.958 9.92702C38.4362 9.92702 38.8546 10.0174 38.8546 10.1531ZM63.3032 10.786C65.3356 12.323 66.5909 13.9957 65.9931 14.4478C65.6345 14.719 64.5585 14.0409 63.1836 12.6395C61.9881 11.4189 60.9719 10.2887 60.9719 10.1531C60.9719 9.65578 62.2272 9.97223 63.3032 10.786ZM32.877 21.0029C32.877 21.7262 32.5184 22.1331 31.9804 22.1331C31.4424 22.1331 31.0837 21.7262 31.0837 21.0029C31.0837 20.2796 31.4424 19.8727 31.9804 19.8727C32.5184 19.8727 32.877 20.2796 32.877 21.0029ZM38.1373 20.8673C38.3167 21.5454 37.8982 21.681 36.2245 21.681C34.4312 21.681 34.0725 21.5002 34.0725 20.7317C34.0725 19.9631 34.3714 19.8275 35.9854 19.9631C37.3005 20.0536 38.0178 20.37 38.1373 20.8673ZM65.754 20.7769C65.754 21.5002 65.3356 21.681 63.7216 21.681C61.4501 21.681 60.3144 20.9125 61.6294 20.2796C62.1077 20.0536 63.1836 19.8727 64.1401 19.8727C65.3356 19.8727 65.754 20.0988 65.754 20.7769ZM68.7428 21.0029C68.7428 21.7262 68.3842 22.1331 67.8462 22.1331C67.3082 22.1331 66.9495 21.7262 66.9495 21.0029C66.9495 20.2796 67.3082 19.8727 67.8462 19.8727C68.3842 19.8727 68.7428 20.2796 68.7428 21.0029ZM36.9418 29.2307C39.6317 31.9884 38.5558 32.8021 35.6267 30.2253C34.4312 29.1855 33.4748 28.0101 33.4748 27.6937C33.4748 26.5183 35.029 27.1964 36.9418 29.2307ZM66.3518 27.6937C66.3518 28.417 62.287 32.0788 61.5099 32.0788C60.5535 32.0788 60.9121 31.2199 62.9445 29.1855C64.8574 27.1964 66.3518 26.5183 66.3518 27.6937ZM50.8099 30.4513C50.8099 31.039 50.9893 31.8528 51.1686 32.2596C51.4675 32.8021 51.1686 32.983 49.9731 32.983C48.2993 32.983 48.2395 32.8925 48.7775 30.7678C49.2557 29.0951 50.8099 28.8691 50.8099 30.4513ZM51.4077 34.5652C51.4077 34.9721 50.8697 35.2433 49.9133 35.2433C48.9569 35.2433 48.4189 34.9721 48.4189 34.5652C48.4189 34.1584 48.9569 33.8871 49.9133 33.8871C50.8697 33.8871 51.4077 34.1584 51.4077 34.5652Z" fill="white"/>
<path d="M40.6479 13.4532C40.2892 13.5436 40.0501 16.4821 40.0501 21.0481V28.4622H49.9132C59.3579 28.4622 59.7763 28.417 59.7763 27.558C59.7763 26.6991 59.3579 26.6539 52.7825 26.6539H45.7886L48.7177 25.2524L51.5869 23.851L54.3964 25.0264C57.8037 26.4278 57.8037 26.4278 58.5808 25.3428C59.1188 24.5743 58.8199 24.3031 56.0104 23.3085L52.902 22.2235L56.369 22.1783C59.3579 22.1331 59.7763 22.0427 59.7763 21.2289C59.7763 20.4152 59.3579 20.3248 56.4288 20.3248C53.6193 20.3248 53.1411 20.1892 53.3205 19.511C53.44 18.9233 54.2171 18.6973 56.369 18.6069C58.7003 18.4713 59.2383 18.3356 59.059 17.7027C58.8796 17.0698 58.0428 16.889 54.2769 16.7986C50.9294 16.7082 49.6143 16.4821 49.3752 16.0301C49.1361 15.4424 49.973 15.3519 54.4562 15.3519C59.597 15.3519 59.8361 15.3067 59.6567 14.4026C59.4774 13.4984 59.1188 13.4532 50.3914 13.3628C45.3702 13.3628 41.0065 13.3628 40.6479 13.4532ZM46.6255 15.6232C46.6255 15.804 46.0875 16.6178 45.3702 17.4767C44.354 18.6973 44.2345 19.1042 44.8322 19.6467C45.43 20.1892 45.3702 20.3248 44.5931 20.3248C44.0551 20.3248 43.6367 20.6864 43.6367 21.1837C43.6367 21.9523 44.1149 22.0879 46.506 22.2235L49.3154 22.3591L47.2233 23.3537C46.0875 23.9414 44.892 24.4839 44.5333 24.5743C44.1747 24.6647 44.2345 24.9812 44.7127 25.3428C45.7886 26.2018 45.6093 26.6539 44.2345 26.6539C43.0987 26.6539 43.0389 26.3374 43.0389 21.0029V15.3519H44.8322C45.8484 15.3519 46.6255 15.4876 46.6255 15.6232ZM50.511 19.4206C50.511 19.8727 49.7339 20.144 48.1199 20.2344L45.7886 20.37L46.9244 19.4206C48.1797 18.3809 50.511 18.3809 50.511 19.4206Z" fill="white"/>
<path d="M184.35 8.07349C181.959 9.15848 180.524 11.9161 180.524 15.3971C180.524 20.0987 182.736 22.54 187.219 22.9016C193.376 23.4441 196.664 20.6412 196.664 14.8999C196.664 11.3737 195.827 9.65576 193.317 8.16391C191.224 6.9433 186.921 6.89809 184.35 8.07349ZM190.806 8.61598C192.181 9.15848 193.675 11.5997 193.675 13.3176C193.675 14.4478 193.615 14.4478 188.594 14.4478H183.513V13.0463C183.513 10.6051 185.845 8.1187 188.116 8.1187C188.893 8.1187 190.089 8.34474 190.806 8.61598ZM193.675 17.2507C193.675 20.5056 190.029 22.8564 186.741 21.7262C185.127 21.1837 183.513 18.7877 183.513 16.9342C183.513 15.804 183.573 15.804 188.594 15.804H193.675V17.2507Z" fill="white"/>
<path d="M117.042 8.48036C118.835 9.52014 119.134 11.5093 118.537 17.3863C118.118 21.5454 117.939 21.9071 116.564 22.4495C115.189 22.992 115.428 23.0372 118.955 23.0372C122.482 23.0372 122.721 22.992 121.346 22.4495C119.852 21.9071 119.852 21.7714 119.732 15.804L119.612 9.70097L123.916 16.1657L128.28 22.6756L132.464 16.2109C137.187 8.88723 137.366 8.97765 136.589 17.4315C136.23 21.5454 136.051 22.0879 134.915 22.4948C133.839 22.9016 134.437 22.992 137.784 22.992C141.73 23.0372 141.849 22.992 140.594 22.3139C139.398 21.681 139.279 21.2741 139.279 17.0246C139.279 10.8764 139.757 9.02286 141.311 8.57078C142.268 8.25432 141.849 8.16391 139.578 8.16391L136.589 8.1187L133.122 13.5888C131.209 16.6178 129.476 18.9233 129.236 18.7877C128.997 18.6521 127.204 16.1205 125.231 13.182L121.645 7.89266L118.656 7.75704L115.667 7.62142L117.042 8.48036Z" fill="white"/>
<path d="M146.332 8.38995C147.588 9.02285 147.647 9.38451 147.647 15.578C147.647 21.3194 147.528 22.1331 146.631 22.54C145.794 22.9016 146.512 22.992 149.441 23.0372C153.087 23.0372 153.207 22.992 151.951 22.3139C150.696 21.681 150.636 21.3194 150.636 15.3519C150.636 9.38451 150.696 9.02285 151.951 8.38995C153.207 7.71183 153.087 7.66662 149.142 7.66662C145.197 7.66662 145.077 7.71183 146.332 8.38995Z" fill="white"/>
<path d="M201.446 8.48039C202.642 9.20371 202.821 9.83662 203.12 13.6341C203.478 19.3754 203 21.8619 201.267 22.4948C200.191 22.9017 200.729 22.9921 204.136 22.9921C208.081 23.0373 208.201 22.9921 206.945 22.3139C205.81 21.7262 205.63 21.229 205.63 18.4713V15.352H207.722C210.592 15.352 211.847 16.4822 212.744 19.7371C213.461 22.6756 214.059 23.0373 217.884 22.9921H219.678L218.064 22.3592C216.928 21.8619 216.211 21.0029 215.553 19.2398C214.896 17.6123 214.059 16.4822 212.923 15.8492C211.787 15.2163 211.608 14.9451 212.265 14.8999C214.119 14.8999 216.39 13.0916 216.39 11.6901C216.39 8.5256 214.178 7.66665 205.75 7.66665C200.191 7.66665 200.131 7.66665 201.446 8.48039ZM212.206 9.02288C215.075 11.1929 212.983 14.4026 208.44 14.7643L205.63 15.0355V11.871C205.63 10.1531 205.81 8.5708 206.049 8.43518C206.945 7.75706 211.01 8.11873 212.206 9.02288Z" fill="white"/>
<path d="M223.743 7.98311C220.037 8.16394 220.037 8.16394 221.172 9.02288C222.189 9.79142 222.368 10.5599 222.368 14.9451C222.368 17.7028 222.667 20.3248 222.966 20.8221C225.237 23.9414 235.339 23.6702 237.312 20.4152C237.671 19.7371 238.149 17.2507 238.328 14.8999C238.627 9.52017 238.926 8.57081 240.002 8.57081C240.48 8.57081 240.899 8.43518 240.899 8.20915C240.899 8.02831 239.404 7.98311 237.551 8.02831C234.503 8.20915 234.323 8.25435 235.579 8.75164C236.953 9.24892 237.013 9.56538 237.193 13.7697C237.372 18.9234 237.133 20.0084 235.519 21.229C233.725 22.5852 228.764 22.4948 226.851 21.0481C224.221 19.059 224.042 9.20372 226.612 8.70643C227.21 8.57081 227.748 8.29956 227.748 8.07352C227.748 7.84748 227.688 7.71186 227.628 7.75707C227.509 7.80228 225.775 7.89269 223.743 7.98311Z" fill="white"/>
<path d="M251.658 8.20913C251.658 8.43517 252.017 8.57079 252.495 8.57079C253.691 8.57079 254.049 10.0626 254.049 15.3519C254.049 20.9577 253.75 21.8619 252.077 22.4948C251.06 22.8564 252.913 22.9921 259.25 22.9921C263.912 23.0373 267.858 22.9016 267.977 22.6756C268.156 22.4948 268.455 21.6358 268.694 20.7769L269.113 19.1946L267.678 20.4152C266.004 21.9071 263.793 22.5852 260.625 22.5852C257.277 22.5852 256.44 21.7262 256.44 18.2452C256.44 15.5328 256.5 15.3519 257.815 15.3972C259.907 15.4424 261.282 15.9849 262.179 17.2055C262.896 18.2 262.956 18.0644 262.956 15.3519V12.4134L261.76 13.6341C260.804 14.5834 260.027 14.8999 258.473 14.8999H256.381L256.56 11.8257L256.739 8.79683L260.146 8.66121C263.195 8.52558 263.733 8.66121 265.646 9.97223C267.798 11.3737 268.156 11.1928 267.439 9.15849C267.08 8.20913 266.722 8.16392 259.369 8.0283C255.125 7.93788 251.658 8.0283 251.658 8.20913Z" fill="white"/>
<path d="M294.099 8.20912C294.099 8.43515 294.458 8.57078 294.936 8.57078C296.251 8.57078 296.491 9.65576 296.491 15.4876C296.491 21.2289 296.371 21.681 294.398 22.4948C293.442 22.9016 295.056 22.992 301.691 23.0372C306.354 23.0372 310.299 22.9016 310.418 22.6756C310.598 22.4948 310.897 21.6358 311.136 20.7769L311.554 19.1946L310.12 20.4152C308.207 22.0427 306.593 22.5852 303.425 22.5852C299.659 22.5852 298.882 21.8166 298.882 18.2452C298.882 15.5328 298.941 15.3519 300.256 15.3971C302.349 15.4424 303.723 15.9848 304.62 17.2055C305.337 18.2 305.397 18.0644 305.397 15.3519V12.4134L304.202 13.634C303.245 14.5834 302.468 14.8999 300.914 14.8999H298.822L299.001 11.8257L299.18 8.79682L302.588 8.66119C305.636 8.52557 306.114 8.66119 308.207 10.0174L310.418 11.5093L310.06 9.97222C309.821 9.11327 309.582 8.34474 309.462 8.29953C309.103 8.02829 294.099 7.93787 294.099 8.20912Z" fill="white"/>
<path d="M327.873 8.29955C325.362 9.11329 322.912 11.4189 322.433 13.3628C321.836 15.7588 322.493 18.7425 323.868 20.2344C327.514 24.1223 336.182 23.8962 339.41 19.8727C340.067 19.059 339.709 19.2398 338.095 20.4152C335.106 22.6304 332.536 23.0373 329.606 21.6358C324.525 19.285 323.748 12.7299 328.172 9.38454C331.22 7.12415 335.823 8.02831 338.095 11.3737C339.29 13.1368 339.709 12.7299 339.23 10.2887C338.872 8.5708 338.633 8.34476 337.258 8.25435C336.361 8.16393 334.329 8.02831 332.655 7.89268C330.742 7.75706 329.009 7.89268 327.873 8.29955Z" fill="white"/>
<path d="M343.236 8.61599C344.491 9.33931 344.61 9.83659 344.79 14.2217C345.089 20.1892 344.67 21.8618 342.937 22.4948C341.92 22.8564 343.594 22.992 350.17 22.992C358.06 23.0372 358.658 22.992 358.658 22.1783C358.658 21.7262 358.837 20.6412 359.016 19.8275L359.375 18.2904L357.701 19.8275C355.011 22.3139 350.229 23.3537 348.257 21.8618C347.48 21.3194 347.3 20.0535 347.3 15.6232C347.3 10.0174 347.599 9.15848 349.811 8.29953C350.468 8.02829 349.273 7.89266 346.344 7.89266C341.98 7.84746 341.92 7.89266 343.236 8.61599Z" fill="white"/>
<path d="M362.723 8.57078C363.978 9.42973 364.038 9.92701 364.038 15.6684C364.038 21.0029 363.918 21.9071 363.021 22.4043C362.065 22.9468 362.484 22.992 365.831 22.992C368.999 22.992 369.477 22.9016 368.401 22.4948C367.325 22.0879 367.027 21.5002 366.668 18.6521C366.07 13.3628 366.608 9.42973 368.222 8.48036C369.537 7.66662 369.477 7.66662 365.472 7.66662H361.408L362.723 8.57078Z" fill="white"/>
<path d="M397.811 8.38995C398.887 9.02285 399.007 9.61055 399.007 15.3971C399.007 21.1837 398.887 21.8166 397.871 22.4043C396.795 22.992 397.034 23.0372 400.382 23.0372H404.088L402.892 22.1331C401.816 21.3194 401.697 20.6412 401.697 15.3519C401.697 9.92701 401.816 9.42972 403.012 8.57078L404.327 7.66662H400.442C396.915 7.71183 396.676 7.75704 397.811 8.38995Z" fill="white"/>
<path d="M413.114 8.66122C409.049 10.7408 407.256 13.9957 408.272 17.3411C408.93 19.6015 410.424 21.1385 413.054 22.1783C415.385 23.1277 419.63 23.3085 421.602 22.54C423.515 21.7715 425.607 20.2344 425.607 19.5563C425.607 19.2398 424.711 19.6919 423.694 20.5508C421.064 22.6756 418.314 23.0373 415.505 21.5906C410.245 18.8782 409.707 11.9614 414.549 9.1133C417.537 7.3502 421.483 8.16394 423.814 11.0572C424.531 11.9614 425.189 12.6395 425.249 12.5491C425.368 12.4587 425.308 11.4641 425.129 10.3339C424.95 8.43518 424.77 8.25435 423.336 8.20914C422.439 8.20914 420.227 8.02831 418.434 7.89269C415.565 7.62144 414.847 7.71186 413.114 8.66122Z" fill="white"/>
<path d="M157.869 9.42973C159.603 10.7408 159.603 10.786 159.603 16.2109V21.6358L157.989 22.3139C156.375 22.992 156.435 22.992 160.499 22.992C163.907 22.9468 164.385 22.9016 163.07 22.54C160.978 21.9523 160.739 21.3646 160.38 15.804L160.081 11.0572L162.233 12.8655C163.369 13.8601 166.298 16.4369 168.689 18.6069C171.08 20.7769 173.232 22.54 173.411 22.5852C173.65 22.5852 174.009 19.7823 174.248 16.3465C174.427 12.9559 174.726 9.8818 174.846 9.56535C175.025 9.2489 175.742 8.79682 176.46 8.57078C177.476 8.29953 176.759 8.16391 173.65 8.20912C171.379 8.20912 170.064 8.34474 170.781 8.43516C173.052 8.75161 173.411 9.61056 173.232 14.4478L173.052 19.059L166.895 13.5888C160.978 8.34474 160.619 8.1187 158.407 8.1187H156.136L157.869 9.42973Z" fill="white"/>
<path d="M271.982 8.70643C272.819 9.02288 274.911 10.8312 276.645 12.7751C279.514 16.0753 279.753 16.5274 279.753 18.9686C279.753 21.1838 279.514 21.7262 278.438 22.3139C277.183 22.9921 277.302 23.0373 281.247 22.9921C284.715 22.9921 285.193 22.9017 284.117 22.4948C282.861 22.0427 282.742 21.681 282.742 18.6069C282.742 15.2615 282.742 15.2163 285.731 12.1422C287.464 10.4243 289.497 8.88726 290.393 8.61601C291.768 8.25435 291.469 8.20914 288.421 8.16393C285.731 8.16393 285.073 8.25435 285.91 8.61601C286.448 8.84205 286.926 9.29413 286.926 9.56537C286.926 9.92704 284.416 12.8203 282.323 14.8999C282.025 15.1711 279.514 12.7751 277.96 10.6956L276.704 9.02288L278.079 8.61601C279.096 8.29956 278.378 8.16393 274.971 8.16393C271.026 8.11873 270.667 8.20914 271.982 8.70643Z" fill="white"/>
<path d="M373.184 8.61598C375.276 9.56535 375.993 11.5093 375.993 16.3465C375.993 18.9233 375.754 21.2289 375.515 21.5454C375.276 21.8618 374.379 22.2687 373.602 22.54C372.406 22.9016 372.944 22.992 376.292 22.992C380.297 22.992 380.416 22.992 378.862 22.3591C377.547 21.8166 377.189 21.2741 376.89 19.3302C376.71 18.0192 376.591 15.6684 376.71 14.1313L376.89 11.3284L383.465 17.1602L390.04 23.0372L390.339 16.3013C390.519 12.5491 390.818 9.42972 390.997 9.2941C391.116 9.15848 391.953 8.88723 392.73 8.61598C393.926 8.25432 393.388 8.16391 390.04 8.16391C386.514 8.20912 386.095 8.25432 387.53 8.66119C389.562 9.20369 389.861 10.0626 389.622 15.0807L389.443 19.1042L383.226 13.5888C377.129 8.25432 376.949 8.1187 374.558 8.1187C372.586 8.16391 372.347 8.25432 373.184 8.61598Z" fill="white"/>
<path d="M178.492 31.3555C175.922 33.2542 176.699 37.6846 179.688 38.2271C183.035 38.86 185.725 36.3283 184.948 33.209C184.529 31.4459 183.872 30.9034 181.6 30.4965C180.345 30.2705 179.628 30.4513 178.492 31.3555ZM182.437 31.4911C183.035 31.898 183.513 32.5761 183.513 33.0734C183.513 33.7515 183.035 33.8871 180.764 33.8871C178.253 33.8871 178.074 33.8419 178.432 32.8473C178.791 31.9432 180.285 30.7226 181.062 30.7226C181.182 30.7226 181.84 31.039 182.437 31.4911ZM183.513 35.6502C183.513 36.6448 182.019 37.9558 180.883 37.9558C179.927 37.9558 179.03 37.1421 178.492 35.7859C178.074 34.8365 178.253 34.7913 180.764 34.7913C183.095 34.7913 183.513 34.9269 183.513 35.6502Z" fill="white"/>
<path d="M211.907 31.4007C210.771 32.2144 210.413 32.983 210.413 34.5652C210.413 37.6846 213.162 39.2668 216.39 37.9558C219.2 36.8256 218.901 31.5363 216.032 30.7226C213.88 30.0897 213.521 30.1349 211.907 31.4007ZM216.032 31.7172C217.645 33.4351 217.227 33.8871 214.298 33.8871C212.505 33.8871 211.608 33.7063 211.608 33.2994C211.608 32.4405 213.342 30.7226 214.298 30.7226C214.776 30.7226 215.553 31.1747 216.032 31.7172ZM216.988 35.6502C216.988 36.69 215.494 37.9558 214.298 37.9558C213.342 37.9558 211.608 36.2379 211.608 35.379C211.608 34.9721 212.505 34.7913 214.298 34.7913C216.569 34.7913 216.988 34.9269 216.988 35.6502Z" fill="white"/>
<path d="M249.985 30.7226C247.235 31.5815 246.577 35.5146 248.968 37.2777C250.702 38.6339 252.256 38.7243 254.109 37.5489C255.305 36.8256 255.544 36.2379 255.544 34.3392C255.544 32.4405 255.305 31.8528 254.109 31.1294C252.555 30.1801 252.017 30.1349 249.985 30.7226ZM253.093 31.4459C253.631 31.8076 254.049 32.5309 254.049 33.0282C254.049 33.7515 253.631 33.8871 251.658 33.8871C249.686 33.8871 249.267 33.7515 249.267 33.0282C249.267 32.124 250.702 30.7226 251.658 30.7226C251.957 30.7226 252.615 31.039 253.093 31.4459ZM254.049 35.6502C254.049 36.5544 252.615 37.9558 251.658 37.9558C250.702 37.9558 249.267 36.5544 249.267 35.6502C249.267 34.9269 249.686 34.7913 251.658 34.7913C253.631 34.7913 254.049 34.9269 254.049 35.6502Z" fill="white"/>
<path d="M277.003 31.3103C275.629 32.2144 275.389 32.7569 275.389 34.5652C275.389 36.2831 275.629 36.916 276.705 37.5942C278.558 38.7243 280.112 38.6339 281.845 37.2777C283.997 35.6954 283.937 32.5309 281.786 31.2199C279.753 29.9993 278.976 30.0445 277.003 31.3103ZM280.47 31.2651C281.008 31.5815 281.606 32.3049 281.845 32.8473C282.204 33.8419 282.025 33.8871 279.514 33.8871C276.465 33.8871 275.868 33.1186 277.781 31.5363C278.916 30.587 279.215 30.5417 280.47 31.2651ZM282.144 35.379C282.144 36.2379 280.411 37.9558 279.454 37.9558C278.259 37.9558 276.764 36.69 276.764 35.6502C276.764 34.9269 277.183 34.7913 279.454 34.7913C281.248 34.7913 282.144 34.9721 282.144 35.379Z" fill="white"/>
<path d="M310 31.2198C308.685 31.9884 308.446 32.4857 308.446 34.3844C308.446 38.0914 311.734 39.5833 314.722 37.2777C316.874 35.6954 316.815 32.5309 314.663 31.2198C313.766 30.6774 312.75 30.2705 312.331 30.2705C311.913 30.2705 310.897 30.6774 310 31.2198ZM313.347 31.2651C313.885 31.5815 314.483 32.3048 314.722 32.8473C315.081 33.8419 314.902 33.8871 312.391 33.8871C309.342 33.8871 308.745 33.1186 310.658 31.5363C311.793 30.5869 312.092 30.5417 313.347 31.2651ZM315.021 35.379C315.021 36.2379 313.288 37.9558 312.331 37.9558C311.375 37.9558 309.641 36.2379 309.641 35.379C309.641 34.9721 310.538 34.7913 312.331 34.7913C314.125 34.7913 315.021 34.9721 315.021 35.379Z" fill="white"/>
<path d="M165.461 33.8871C165.58 35.9215 165.401 37.3229 164.983 37.7298C164.325 38.3175 164.564 38.4079 166.178 38.4079C167.792 38.4079 168.031 38.3175 167.374 37.7298C166.955 37.3229 166.776 35.9215 166.895 33.8871C167.015 31.3103 166.895 30.7226 166.178 30.7226C165.461 30.7226 165.341 31.3103 165.461 33.8871Z" fill="white"/>
<path d="M171.199 31.8528C173.71 33.6159 173.112 37.0517 170.183 37.9558C169.107 38.2723 169.047 38.3627 169.944 38.3627C171.498 38.4079 174.547 35.9667 174.547 34.6557C174.547 33.2994 172.634 31.3555 170.96 31.039C169.824 30.813 169.824 30.9034 171.199 31.8528Z" fill="white"/>
<path d="M189.192 31.8528C186.143 34.1132 188.236 38.4983 192.3 38.3627C193.615 38.3175 193.675 38.2271 192.719 38.0914C189.431 37.5941 187.996 33.6611 190.328 31.6719C191.942 30.3609 190.925 30.4965 189.192 31.8528Z" fill="white"/>
<path d="M194.632 31.7624C195.289 32.3048 195.827 32.8473 195.887 32.9378C196.007 33.0282 196.067 32.7117 196.067 32.2144C196.067 31.6267 195.588 31.1747 194.811 31.039C193.616 30.813 193.616 30.813 194.632 31.7624Z" fill="white"/>
<path d="M198.039 31.4007C197.561 32.4405 198.039 32.5309 199.294 31.5815C200.37 30.813 200.37 30.7226 199.414 30.7226C198.876 30.7226 198.278 31.039 198.039 31.4007Z" fill="white"/>
<path d="M202.462 33.5707C202.642 35.379 202.522 36.7804 202.104 37.4133C201.506 38.3175 201.566 38.4079 202.761 38.4079C204.076 38.4079 204.136 38.3175 203.957 34.5652C203.777 31.6719 203.538 30.7226 202.941 30.7226C202.283 30.7226 202.163 31.3103 202.462 33.5707Z" fill="white"/>
<path d="M205.631 31.039C206.109 31.1746 206.886 31.4911 207.304 31.7623C207.783 32.0788 208.022 31.9884 208.022 31.4459C208.022 30.9486 207.544 30.7226 206.408 30.7678C205.451 30.7678 205.093 30.9034 205.631 31.039Z" fill="white"/>
<path d="M221.651 31.2651C222.607 31.9884 222.607 37.1421 221.651 37.8654C221.113 38.2723 221.232 38.4079 222.368 38.4079C223.862 38.4079 223.862 38.3627 223.683 34.5652C223.504 30.9938 223.384 30.7226 222.189 30.7226C221.232 30.7226 221.113 30.8582 221.651 31.2651Z" fill="white"/>
<path d="M226.851 31.6267C227.927 32.5309 227.927 32.5761 226.552 33.6611C224.998 34.9269 225.596 35.1529 227.628 34.0679C229.242 33.209 229.362 31.8075 227.807 31.1746C226.014 30.4513 225.655 30.6321 226.851 31.6267Z" fill="white"/>
<path d="M236.116 30.9034C236.116 30.9938 236.535 31.3103 237.013 31.6267C237.551 31.9432 237.91 31.9884 237.91 31.7171C237.91 31.4911 237.491 31.1747 237.013 30.9938C236.535 30.8582 236.116 30.813 236.116 30.9034Z" fill="white"/>
<path d="M259.13 34.5652C259.13 38.3175 259.19 38.4079 260.565 38.4079C261.76 38.4079 261.82 38.3175 261.222 37.7298C260.744 37.2777 260.565 35.9667 260.744 33.8871C260.924 31.2651 260.804 30.7226 260.027 30.7226C259.31 30.7226 259.13 31.4007 259.13 34.5652Z" fill="white"/>
<path d="M264.51 31.2198C265.168 31.5363 265.945 31.9884 266.184 32.2596C266.483 32.5761 266.602 32.3952 266.483 31.8528C266.363 31.2651 265.765 30.9034 264.809 30.813C263.374 30.7226 263.374 30.7226 264.51 31.2198Z" fill="white"/>
<path d="M286.627 34.5652C286.627 38.3175 286.687 38.4079 288.062 38.4079C289.198 38.4079 289.317 38.2723 288.779 37.775C288.421 37.4585 288.182 35.831 288.301 33.9323C288.421 31.3103 288.241 30.7226 287.524 30.7226C286.807 30.7226 286.627 31.4459 286.627 34.5652Z" fill="white"/>
<path d="M291.708 31.4007C292.127 31.7623 292.306 32.5761 292.187 33.209C291.828 34.5652 292.605 34.7008 293.502 33.3898C294.04 32.6665 293.98 32.2596 293.143 31.5815C291.947 30.5869 290.632 30.4061 291.708 31.4007Z" fill="white"/>
<path d="M295.893 31.4459C295.893 32.0788 296.072 32.124 296.969 31.5815C297.507 31.2651 298.105 30.9034 298.224 30.8582C298.344 30.7678 297.925 30.7226 297.208 30.7226C296.371 30.7226 295.893 30.9938 295.893 31.4459Z" fill="white"/>
<path d="M300.077 34.0227C300.077 35.9667 299.778 37.5489 299.36 37.8654C298.822 38.2723 299.061 38.4079 300.495 38.4079C302.349 38.4079 302.408 38.3627 301.751 37.0064C301.392 36.2831 301.273 34.52 301.392 33.1638C301.631 31.3103 301.452 30.7226 300.854 30.7226C300.256 30.7226 300.077 31.5815 300.077 34.0227Z" fill="white"/>
<path d="M303.962 31.2651C304.62 31.5363 305.337 31.9884 305.576 32.2596C305.875 32.5309 306.055 32.3048 306.055 31.7171C306.055 30.9486 305.696 30.7226 304.441 30.7226C302.886 30.7678 302.827 30.7678 303.962 31.2651Z" fill="white"/>
<path d="M319.564 31.4007C319.803 31.7623 320.162 32.0788 320.52 32.0788C320.819 32.0788 321.895 33.435 322.912 35.1077L324.705 38.1818L326.797 35.0625C327.933 33.3898 328.949 32.0788 329.009 32.124C329.068 32.2144 329.009 33.6611 328.829 35.3338C328.471 38.3175 328.471 38.4079 329.786 38.4079C330.981 38.4079 331.101 38.3175 330.443 37.5489C329.965 36.916 329.905 35.9215 330.324 33.7063C330.862 31.0842 330.802 30.7226 329.965 30.7226C329.367 30.7226 328.351 31.7623 327.275 33.435C326.319 34.9269 325.362 36.1475 325.183 36.1475C324.944 36.1475 324.047 34.9269 323.151 33.435C321.955 31.4911 321.178 30.7226 320.401 30.7226C319.624 30.7226 319.385 30.9486 319.564 31.4007Z" fill="white"/>
<path d="M334.628 31.2651C335.046 31.5815 335.345 33.0282 335.345 34.5652C335.345 36.1023 335.046 37.5489 334.628 37.8654C334.09 38.2722 334.449 38.4079 336.302 38.3627C337.557 38.3175 338.155 38.227 337.617 38.0914C336.72 37.9106 336.541 37.3229 336.541 34.294C336.541 30.9034 336.481 30.7226 335.226 30.7226C334.209 30.7226 334.09 30.8582 334.628 31.2651Z" fill="white"/>
<path d="M340.366 31.4007C341.622 32.124 342.279 31.9884 341.622 31.2199C341.442 30.9486 340.785 30.7226 340.247 30.7226C339.35 30.7678 339.35 30.813 340.366 31.4007Z" fill="white"/>
<path d="M344.73 31.039C344.491 31.1747 344.312 31.6267 344.312 32.0336C344.312 32.4857 344.491 32.5761 344.79 32.2596C345.029 31.9884 345.746 31.5363 346.404 31.2651C347.599 30.7678 347.599 30.7678 346.344 30.7226C345.686 30.7226 344.909 30.8582 344.73 31.039Z" fill="white"/>
<path d="M348.974 33.6159C349.094 35.2433 348.914 36.8708 348.556 37.4585C347.898 38.3175 348.018 38.4079 349.811 38.4079C351.305 38.4079 351.544 38.2723 351.006 37.8654C350.588 37.5489 350.289 35.9667 350.289 34.0227C350.289 31.6267 350.05 30.7226 349.512 30.7226C348.914 30.7226 348.795 31.4459 348.974 33.6159Z" fill="white"/>
<path d="M352.142 30.8582C352.262 30.9034 352.86 31.2651 353.457 31.5815C354.294 32.124 354.474 32.0788 354.474 31.4459C354.474 30.9938 353.995 30.7226 353.159 30.7226C352.441 30.7226 352.023 30.7678 352.142 30.8582Z" fill="white"/>
<path d="M357.761 34.5652C357.761 37.6846 357.941 38.4079 358.658 38.4079C359.315 38.4079 359.555 37.9106 359.435 36.2831C359.375 35.0625 359.315 33.3446 359.315 32.3953C359.256 31.4007 358.957 30.7226 358.538 30.7226C357.941 30.7226 357.761 31.8076 357.761 34.5652Z" fill="white"/>
<path d="M362.484 31.4459C363.739 32.3953 363.679 32.7569 362.125 33.8871C360.571 34.9721 361.408 35.1077 363.32 34.0679C364.934 33.209 365.054 31.8076 363.5 31.1747C361.826 30.4965 361.408 30.6322 362.484 31.4459Z" fill="white"/>
<path d="M367.983 31.7171C371.091 34.3392 372.048 36.69 370.493 37.8654C369.956 38.2723 370.195 38.4079 371.749 38.4079C373.423 38.4079 373.662 38.3175 373.004 37.7298C372.586 37.3681 372.406 36.3735 372.526 35.5146C372.645 34.6556 372.586 34.0227 372.347 34.1584C371.809 34.3844 370.015 32.3048 370.015 31.4007C370.015 30.9486 369.477 30.7226 368.401 30.7226H366.847L367.983 31.7171Z" fill="white"/>
<path d="M374.379 31.3555C374.559 31.6719 374.379 32.2596 374.021 32.5761C373.602 32.8926 373.901 32.8021 374.678 32.3501C376.233 31.3555 376.352 30.7226 375.037 30.7226C374.439 30.7226 374.2 30.9938 374.379 31.3555Z" fill="white"/>
<path d="M232.53 31.8528C231.454 32.8473 232.231 33.8419 234.742 34.6556C237.372 35.4694 238.029 36.0571 237.551 37.2325C237.312 37.775 237.431 37.9558 237.85 37.775C238.209 37.5941 238.507 36.8256 238.507 36.1023C238.507 34.9269 238.149 34.6556 235.758 33.8871C233.546 33.1638 233.068 32.8021 233.307 32.0788C233.666 30.9938 233.546 30.9486 232.53 31.8528Z" fill="white"/>
<path d="M319.743 35.379C319.564 37.3681 319.743 38.4079 320.162 38.4079C320.58 38.4079 320.7 37.5037 320.58 35.7858C320.222 32.0336 319.982 31.898 319.743 35.379Z" fill="white"/>
<path d="M338.155 34.0679C337.138 34.6556 337.198 34.7009 338.334 34.9269C339.231 35.1077 339.529 34.9269 339.529 34.294C339.529 33.2994 339.529 33.2994 338.155 34.0679Z" fill="white"/>
<path d="M262.418 34.294C262.418 34.5652 262.717 34.8817 263.016 35.0173C263.374 35.1529 263.614 34.9721 263.614 34.6104C263.614 34.2036 263.374 33.8871 263.016 33.8871C262.717 33.8871 262.418 34.0679 262.418 34.294Z" fill="white"/>
<path d="M226.851 36.2379C227.449 38.2271 227.628 38.4079 229.123 38.3627C229.84 38.3627 230.139 38.2271 229.72 38.1366C229.302 38.001 228.704 37.1873 228.345 36.3283C227.449 34.3392 226.313 34.294 226.851 36.2379Z" fill="white"/>
<path d="M362.543 36.0119C363.201 38.2271 363.38 38.4079 364.695 38.4079C365.891 38.4079 365.95 38.3627 365.113 37.5941C364.576 37.1873 364.038 36.4187 363.978 35.9667C363.858 35.4694 363.38 35.0173 362.962 34.8817C362.424 34.7461 362.304 35.0625 362.543 36.0119Z" fill="white"/>
<path d="M231.932 37.0516C231.932 37.5489 232.351 37.9558 232.829 37.9558C233.606 37.9558 233.666 37.775 233.128 37.0516C232.769 36.5544 232.351 36.1475 232.231 36.1475C232.052 36.1475 231.932 36.5544 231.932 37.0516Z" fill="white"/>
<path d="M340.426 37.775L338.633 38.3627L340.247 38.4079C341.143 38.4079 342.04 38.1818 342.219 37.9106C342.877 37.1873 342.339 37.1421 340.426 37.775Z" fill="white"/>
</svg>
