<svg width="50" height="33" viewBox="0 0 50 33" fill="none" xmlns="http://www.w3.org/2000/svg">
<path d="M2 21.1C2 26.1809 6.11897 30.3 11.2 30.3C16.281 30.3 20.4 26.1809 20.4 21.1C20.4 16.0191 16.281 11.9 11.2 11.9C6.11897 11.9 2 16.0191 2 21.1ZM2 21.1V2.70001" stroke="black" stroke-width="4" stroke-linecap="round" stroke-linejoin="round"/>
<path d="M47.9998 21.1C47.9998 26.1809 43.8808 30.3 38.7998 30.3C33.7189 30.3 29.5999 26.1809 29.5999 21.1C29.5999 16.0191 33.7189 11.9 38.7998 11.9C43.8808 11.9 47.9998 16.0191 47.9998 21.1ZM47.9998 21.1V2.70001" stroke="black" stroke-width="4" stroke-linecap="round" stroke-linejoin="round"/>
<path d="M29.5999 21.0999H20.3999" stroke="black" stroke-width="4" stroke-linecap="round" stroke-linejoin="round"/>
</svg>
