<svg width="42" height="42" viewBox="0 0 42 42" fill="none" xmlns="http://www.w3.org/2000/svg">
<path d="M21 39.9C31.4933 39.9 40 31.3933 40 20.9C40 10.4066 31.4933 1.90002 21 1.90002C10.5066 1.90002 2 10.4066 2 20.9C2 31.3933 10.5066 39.9 21 39.9Z" stroke="black" stroke-width="3" stroke-linecap="round" stroke-linejoin="round"/>
<path d="M7.70005 9.50013C8.74938 9.50013 9.60005 8.64947 9.60005 7.60013C9.60005 6.5508 8.74938 5.70013 7.70005 5.70013C6.65072 5.70013 5.80005 6.5508 5.80005 7.60013C5.80005 8.64947 6.65072 9.50013 7.70005 9.50013Z" fill="black" stroke="black" stroke-width="3" stroke-linecap="round" stroke-linejoin="round"/>
<path d="M34.2998 36.1C35.3492 36.1 36.1998 35.2494 36.1998 34.2C36.1998 33.1507 35.3492 32.3 34.2998 32.3C33.2504 32.3 32.3998 33.1507 32.3998 34.2C32.3998 35.2494 33.2504 36.1 34.2998 36.1Z" fill="black" stroke="black" stroke-width="3" stroke-linecap="round" stroke-linejoin="round"/>
<path d="M34.3 34.1999L31.45 31.3499" stroke="black" stroke-width="3" stroke-linecap="round" stroke-linejoin="round"/>
<path d="M27.65 27.55L25.75 25.65" stroke="black" stroke-width="3" stroke-linecap="round" stroke-linejoin="round"/>
<path d="M21.95 21.8501L20.05 19.9501" stroke="black" stroke-width="3" stroke-linecap="round" stroke-linejoin="round"/>
<path d="M16.2502 16.15L14.3502 14.25" stroke="black" stroke-width="3" stroke-linecap="round" stroke-linejoin="round"/>
<path d="M10.55 10.4502L7.69995 7.60016" stroke="black" stroke-width="3" stroke-linecap="round" stroke-linejoin="round"/>
</svg>
