<svg width="50" height="41" viewBox="0 0 50 41" fill="none" xmlns="http://www.w3.org/2000/svg">
<path d="M34.2 7.24339C34.2 8.62667 33.6538 9.95526 32.6781 10.938C30.4324 13.2011 28.2545 15.5608 25.9249 17.7418C25.391 18.2344 24.544 18.2165 24.0329 17.7015L17.3215 10.938C15.2929 8.89363 15.2929 5.59315 17.3215 3.54879C19.3701 1.48432 22.7074 1.48432 24.7558 3.54879L24.9998 3.79461L25.2436 3.54892C26.2259 2.55857 27.5636 2 28.9609 2C30.3584 2 31.696 2.55853 32.6781 3.54879C33.6538 4.53166 34.2 5.86018 34.2 7.24339Z" stroke="black" stroke-width="3" stroke-linejoin="round"/>
<path d="M38.8 38.7997L47.5959 30.0039C47.8547 29.7451 48 29.3942 48 29.0282V16.9499C48 15.0445 46.4554 13.4999 44.55 13.4999C42.6447 13.4999 41.1 15.0445 41.1 16.9499V27.2998" stroke="black" stroke-width="3" stroke-linecap="round" stroke-linejoin="round"/>
<path d="M38.8 29.6001L40.7736 27.6264C40.9827 27.4174 41.1 27.134 41.1 26.8387C41.1 26.4166 40.8615 26.0309 40.4841 25.8421L39.4654 25.3329C37.6946 24.4474 35.5556 24.7945 34.1556 26.1945L32.0973 28.2527C31.2346 29.1154 30.75 30.2854 30.75 31.5054V38.8" stroke="black" stroke-width="3" stroke-linecap="round" stroke-linejoin="round"/>
<path d="M11.2 38.7997L2.4042 30.0039C2.14538 29.7451 2 29.3942 2 29.0282V16.9499C2 15.0445 3.54461 13.4999 5.45 13.4999C7.35539 13.4999 8.9 15.0445 8.9 16.9499V27.2998" stroke="black" stroke-width="3" stroke-linecap="round" stroke-linejoin="round"/>
<path d="M11.1999 29.6001L9.2262 27.6264C9.01727 27.4174 8.8999 27.134 8.8999 26.8387C8.8999 26.4166 9.13832 26.0309 9.51575 25.8421L10.5344 25.3329C12.3054 24.4474 14.4443 24.7945 15.8443 26.1945L17.9026 28.2527C18.7653 29.1154 19.2499 30.2854 19.2499 31.5054V38.8" stroke="black" stroke-width="3" stroke-linecap="round" stroke-linejoin="round"/>
</svg>
